<?xml version="1.0" encoding="UTF-8" standalone="no"?>
<svg
   width="112.167"
   height="112.167"
   viewBox="254.933 4291.933 112.167 112.167"
   version="1.1"
   id="svg9816"
   sodipodi:docname="charity.svg"
   inkscape:version="1.2.2 (b0a8486541, 2022-12-01)"
   xmlns:inkscape="http://www.inkscape.org/namespaces/inkscape"
   xmlns:sodipodi="http://sodipodi.sourceforge.net/DTD/sodipodi-0.dtd"
   xmlns="http://www.w3.org/2000/svg"
   xmlns:svg="http://www.w3.org/2000/svg">
  <defs
     id="defs9820" />
  <sodipodi:namedview
     id="namedview9818"
     pagecolor="#ffffff"
     bordercolor="#000000"
     borderopacity="0.25"
     inkscape:showpageshadow="2"
     inkscape:pageopacity="0.0"
     inkscape:pagecheckerboard="0"
     inkscape:deskcolor="#d1d1d1"
     showgrid="false"
     inkscape:zoom="4.9297699"
     inkscape:cx="69.07016"
     inkscape:cy="69.374434"
     inkscape:window-width="1920"
     inkscape:window-height="1011"
     inkscape:window-x="0"
     inkscape:window-y="0"
     inkscape:window-maximized="1"
     inkscape:current-layer="g9814" />
  <g
     data-name="Group 1159"
     id="g9814">
    <g
       data-name="Group 1157"
       id="g9796">
      <path
         d="M346.804 4291.948h-71.582c-11.198 0-20.274 9.076-20.274 20.274v71.582c0 11.197 9.076 20.274 20.274 20.274h71.582c11.198 0 20.274-9.077 20.274-20.274v-71.582c0-11.198-9.076-20.274-20.274-20.274Zm1.14 107.657-68.034 3.355c-10.643.525-19.698-7.718-20.224-18.411l-3.372-68.36c-.527-10.694 7.672-19.788 18.315-20.314l68.033-3.355c10.641-.524 19.696 7.718 20.224 18.411l3.371 68.362c.528 10.694-7.672 19.788-18.313 20.312Z"
         fill="#008837"
         fill-rule="evenodd"
         data-name="Path 2383"
         id="path9760"
         style="fill:#008837;fill-opacity:0.2" />
      <path
         d="m338.73 4293.33-64.42 6.37c-10.078.995-17.43 10.053-16.424 20.229l6.432 65.055c1.006 10.176 9.991 17.619 20.068 16.622l64.422-6.369c10.077-.997 17.43-10.055 16.423-20.23l-6.432-65.056c-1.007-10.177-9.991-17.619-20.068-16.621Zm10.681 97.658-60.77 9.05c-9.505 1.415-18.375-5.26-19.813-14.91l-9.187-61.689c-1.437-9.65 5.103-18.62 14.61-20.036l60.769-9.05c9.506-1.416 18.377 5.26 19.814 14.909l9.186 61.69c1.438 9.649-5.103 18.62-14.609 20.036Z"
         fill="#008837"
         fill-rule="evenodd"
         data-name="Path 2384"
         id="path9762"
         style="fill:#008837;fill-opacity:0.2" />
      <path
         d="m331.538 4295.572-57.102 11.403c-8.932 1.784-14.697 10.62-12.876 19.737l11.64 58.284c1.82 9.117 10.537 15.062 19.47 13.278l57.101-11.404c8.932-1.784 14.698-10.62 12.877-19.738l-11.64-58.284c-1.821-9.117-10.538-15.06-19.47-13.276Zm18.366 87.324-53.441 13.441c-8.36 2.103-16.887-3.149-19.044-11.73l-13.798-54.86c-2.157-8.581 2.869-17.241 11.23-19.344l53.44-13.44c8.358-2.103 16.884 3.148 19.043 11.73l13.798 54.859c2.158 8.581-2.87 17.242-11.228 19.344Z"
         fill="#008837"
         fill-rule="evenodd"
         data-name="Path 2385"
         id="path9764"
         style="fill:#008837;fill-opacity:0.2" />
      <path
         d="m325.282 4298.507-49.808 15.17c-7.79 2.374-12.119 10.82-9.669 18.866l15.668 51.434c2.45 8.046 10.753 12.643 18.544 10.27l49.806-15.171c7.79-2.373 12.12-10.819 9.67-18.865l-15.668-51.434c-2.45-8.045-10.753-12.644-18.543-10.27Zm24.266 76.911-46.219 16.607c-7.23 2.598-15.279-1.387-17.978-8.898l-17.258-48.03c-2.7-7.512.972-15.709 8.203-18.307l46.219-16.607c7.228-2.598 15.279 1.387 17.978 8.899l17.258 48.03c2.7 7.512-.973 15.708-8.203 18.306Z"
         fill="#008837"
         fill-rule="evenodd"
         data-name="Path 2386"
         id="path9766"
         style="fill:#008837;fill-opacity:0.2" />
      <path
         d="m319.991 4301.971-42.697 17.763c-6.679 2.778-9.737 10.694-6.831 17.68l18.579 44.66c2.907 6.986 10.677 10.397 17.355 7.618l42.699-17.762c6.677-2.779 9.737-10.695 6.83-17.681l-18.58-44.66c-2.906-6.985-10.676-10.396-17.355-7.618Zm28.49 66.646-39.258 18.65c-6.14 2.918-13.609.04-16.683-6.428l-19.641-41.345c-3.074-6.468-.585-14.075 5.555-16.993l39.257-18.65c6.14-2.917 13.61-.04 16.682 6.427l19.643 41.346c3.072 6.467.585 14.076-5.555 16.993Z"
         fill="#008837"
         fill-rule="evenodd"
         data-name="Path 2387"
         id="path9768"
         style="fill:#008837;fill-opacity:0.2" />
      <path
         d="m315.673 4305.802-35.914 19.286c-5.62 3.018-7.578 10.293-4.378 16.254l20.459 38.1c3.2 5.96 10.349 8.345 15.967 5.328l35.915-19.285c5.618-3.018 7.577-10.295 4.377-16.254l-20.459-38.1c-3.201-5.96-10.35-8.345-15.967-5.329Zm31.161 56.733-32.684 19.684c-5.112 3.08-11.925 1.146-15.216-4.32l-21.042-34.937c-3.29-5.465-1.814-12.392 3.298-15.47l32.684-19.685c5.112-3.079 11.925-1.144 15.216 4.32l21.042 34.939c3.291 5.464 1.816 12.39-3.298 15.469Z"
         fill="#008837"
         fill-rule="evenodd"
         data-name="Path 2388"
         id="path9770"
         style="fill:#008837;fill-opacity:0.2" />
      <path
         d="m312.311 4309.847-29.578 19.863c-4.627 3.106-5.663 9.666-2.316 14.652l21.403 31.87c3.348 4.986 9.812 6.51 14.44 3.403l29.577-19.862c4.627-3.108 5.664-9.668 2.315-14.654l-21.401-31.87c-3.349-4.986-9.813-6.508-14.44-3.402Zm32.434 47.349-26.607 19.837c-4.162 3.102-10.269 1.951-13.641-2.572l-21.556-28.913c-3.372-4.523-2.732-10.705 1.43-13.807l26.607-19.837c4.162-3.104 10.27-1.953 13.642 2.57l21.555 28.914c3.373 4.523 2.732 10.706-1.43 13.808Z"
         fill="#008837"
         fill-rule="evenodd"
         data-name="Path 2389"
         id="path9772"
         style="fill:#008837;fill-opacity:0.2" />
      <path
         d="m309.869 4313.96-23.782 19.624c-3.72 3.07-4.008 8.865-.641 12.944l21.517 26.076c3.366 4.078 9.11 4.897 12.83 1.827l23.781-19.624c3.72-3.07 4.007-8.865.642-12.944l-21.518-26.076c-3.366-4.079-9.11-4.896-12.83-1.826Zm32.472 38.641-21.109 19.244c-3.302 3.01-8.68 2.487-12.011-1.168l-21.301-23.365c-3.332-3.655-3.357-9.058-.055-12.069l21.11-19.243c3.301-3.01 8.679-2.487 12.01 1.168l21.302 23.366c3.331 3.655 3.356 9.058.054 12.067Z"
         fill="#008837"
         fill-rule="evenodd"
         data-name="Path 2390"
         id="path9774"
         style="fill:#008837;fill-opacity:0.2" />
      <path
         d="m308.289 4318.01-18.597 18.711c-2.909 2.927-2.614 7.936.659 11.19l20.92 20.79c3.272 3.253 8.283 3.516 11.193.59l18.595-18.711c2.909-2.928 2.614-7.937-.659-11.19l-20.92-20.79c-3.272-3.253-8.282-3.517-11.191-.59Zm31.455 30.727-16.248 18.044c-2.542 2.822-7.187 2.782-10.378-.09l-20.391-18.361c-3.19-2.872-3.716-7.488-1.175-10.312l16.25-18.043c2.54-2.824 7.186-2.783 10.376.088l20.392 18.362c3.19 2.871 3.715 7.488 1.174 10.312Z"
         fill="#008837"
         fill-rule="evenodd"
         data-name="Path 2391"
         id="path9776"
         style="fill:#008837;fill-opacity:0.2" />
      <path
         d="m307.5 4321.879-14.067 17.264c-2.201 2.7-1.483 6.928 1.604 9.444l19.731 16.079c3.087 2.514 7.374 2.364 9.574-.335l14.068-17.264c2.2-2.7 1.482-6.928-1.604-9.444l-19.732-16.079c-3.087-2.514-7.372-2.364-9.574.335Zm29.569 23.688-12.058 16.383c-1.886 2.562-5.819 2.871-8.784.69l-18.954-13.952c-2.965-2.182-3.84-6.028-1.954-8.59l12.059-16.384c1.886-2.562 5.818-2.871 8.784-.69l18.953 13.952c2.965 2.182 3.84 6.028 1.954 8.59Z"
         fill="#008837"
         fill-rule="evenodd"
         data-name="Path 2392"
         id="path9778"
         style="fill:#008837;fill-opacity:0.2" />
      <path
         d="m307.42 4325.467-10.22 15.423c-1.599 2.412-.602 5.886 2.225 7.76l18.075 11.977c2.827 1.873 6.416 1.436 8.014-.975l10.219-15.423c1.6-2.412.602-5.886-2.225-7.76l-18.075-11.977c-2.827-1.874-6.416-1.437-8.014.975Zm26.995 17.58-8.55 14.397c-1.338 2.252-4.591 2.789-7.267 1.2l-17.11-10.162c-2.677-1.59-3.762-4.704-2.425-6.956l8.55-14.397c1.338-2.25 4.591-2.788 7.269-1.199l17.109 10.162c2.676 1.589 3.761 4.703 2.424 6.955Z"
         fill="#008837"
         fill-rule="evenodd"
         data-name="Path 2393"
         id="path9780"
         style="fill:#008837;fill-opacity:0.2" />
      <path
         d="m307.947 4328.692-7.049 13.324c-1.103 2.084.042 4.851 2.556 6.182l16.073 8.504c2.514 1.33 5.447.718 6.549-1.365l7.05-13.325c1.103-2.084-.042-4.851-2.556-6.182l-16.073-8.504c-2.514-1.33-5.446-.718-6.55 1.366Zm23.926 12.426-5.713 12.218c-.894 1.913-3.518 2.573-5.86 1.477l-14.98-7.003c-2.343-1.096-3.519-3.534-2.624-5.445l5.713-12.218c.894-1.912 3.518-2.573 5.86-1.478l14.98 7.004c2.343 1.095 3.518 3.533 2.624 5.445Z"
         fill="#008837"
         fill-rule="evenodd"
         data-name="Path 2394"
         id="path9782"
         style="fill:#008837;fill-opacity:0.2" />
      <path
         d="m308.983 4331.488-4.537 11.098c-.709 1.734.47 3.86 2.636 4.745l13.844 5.66c2.165.885 4.497.196 5.206-1.54l4.536-11.098c.71-1.736-.47-3.861-2.636-4.746l-13.843-5.66c-2.166-.885-4.496-.195-5.206 1.541Zm17.94 4.13c1.982.7 3.145 2.53 2.595 4.09l-3.515 9.975c-.55 1.559-2.603 2.257-4.586 1.559l-12.68-4.468c-1.982-.7-3.145-2.53-2.595-4.09l3.515-9.975c.55-1.56 2.603-2.257 4.586-1.559l12.68 4.467Z"
         fill="#008837"
         fill-rule="evenodd"
         data-name="Path 2395"
         id="path9784"
         style="fill:#008837;fill-opacity:0.2" />
      <path
         d="m310.416 4333.81-2.64 8.862c-.413 1.385.71 2.944 2.51 3.48l11.499 3.425c1.798.536 3.59-.154 4.004-1.54l2.64-8.861c.412-1.387-.711-2.945-2.51-3.48l-11.499-3.426c-1.797-.536-3.59.154-4.004 1.54Zm4.292-.511 10.317 2.527c1.614.395 2.68 1.7 2.383 2.917l-1.905 7.774c-.298 1.216-1.848 1.882-3.462 1.486l-10.315-2.528c-1.614-.395-2.681-1.7-2.383-2.917l1.905-7.774c.298-1.216 1.847-1.88 3.46-1.485Z"
         fill="#008837"
         fill-rule="evenodd"
         data-name="Path 2396"
         id="path9786"
         style="fill:#008837;fill-opacity:0.2" />
      <path
         d="m313.06 4344.76 9.142 1.767c1.43.277 2.754-.352 2.957-1.404l1.3-6.721c.203-1.052-.791-2.129-2.221-2.405l-9.144-1.768c-1.43-.276-2.754.352-2.957 1.404l-1.3 6.722c-.203 1.052.791 2.128 2.222 2.405Zm.011-8.406c.128-.893 1.244-1.474 2.494-1.296l7.99 1.14c1.25.178 2.158 1.047 2.03 1.942l-.814 5.716c-.128.895-1.245 1.475-2.494 1.297l-7.99-1.14c-1.25-.177-2.16-1.047-2.032-1.942l.816-5.717Z"
         fill="#008837"
         fill-rule="evenodd"
         data-name="Path 2397"
         id="path9788"
         style="fill:#008837;fill-opacity:0.2" />
      <path
         d="m315.413 4343.249 6.868.636c1.074.1 2.001-.424 2.07-1.17l.442-4.767c.07-.747-.746-1.431-1.82-1.532l-6.867-.636c-1.075-.099-2.001.425-2.07 1.17l-.442 4.769c-.07.745.745 1.43 1.82 1.53Zm-.395-5.826c.027-.608.781-1.07 1.687-1.03l5.785.25c.904.04 1.617.563 1.591 1.17l-.168 3.885c-.026.607-.78 1.067-1.685 1.028l-5.786-.249c-.905-.039-1.616-.563-1.59-1.17l.166-3.884Z"
         fill="#008837"
         fill-rule="evenodd"
         data-name="Path 2398"
         id="path9790"
         style="fill:#008837;fill-opacity:0.2" />
      <path
         d="m317.378 4341.708 4.752-.03c.743-.004 1.343-.397 1.34-.878l-.018-3.071c-.004-.481-.609-.867-1.352-.862l-4.752.029c-.743.004-1.344.398-1.342.879l.02 3.07c.003.481.607.867 1.352.863Zm.644-4.42 3.776-.21c.59-.032 1.085.238 1.106.604l.13 2.337c.02.366-.443.69-1.033.722l-3.776.21c-.59.033-1.086-.237-1.107-.602l-.129-2.34c-.02-.365.442-.688 1.033-.72Z"
         fill="#008837"
         fill-rule="evenodd"
         data-name="Path 2399"
         id="path9792"
         style="fill:#008837;fill-opacity:0.2" />
      <path
         d="m318.991 4340.215 2.864-.3c.447-.048.789-.3.76-.565l-.177-1.688c-.028-.264-.414-.44-.86-.393l-2.864.3c-.449.048-.789.3-.762.564l.178 1.69c.028.264.413.44.861.392Z"
         fill="#008837"
         fill-rule="evenodd"
         data-name="Path 2400"
         id="path9794"
         style="fill:#008837;fill-opacity:0.2" />
    </g>
    <g
       data-name="Group 1158"
       id="g9812">
      <path
         d="M331.962 4363.063v-2.159a12.95 12.95 0 0 1-1.705.518v1.64c0 .044 0 .087-.01.13a2.51 2.51 0 0 1-2.147 2.362l-19.333 2.827a7.27 7.27 0 0 1-5.696-1.63l-9.752-8.23a.84.84 0 0 0-.55-.195h-5.88v-21.145h5.88c.032 0 .075 0 .108-.01l12.093-1.435a24.346 24.346 0 0 1 10.454.992l.603.194 1.867.594c.519-.464 1.08-.885 1.672-1.263l-2.038-.646-1.587-.507a26.38 26.38 0 0 0-8.015-1.253c-1.046 0-2.103.065-3.16.184l-12.04 1.446h-6.7a.854.854 0 0 0-.853.852v22.85c0 .474.389.852.853.852h6.43l9.515 8.027a8.926 8.926 0 0 0 7.045 2.006l19.321-2.816a4.255 4.255 0 0 0 3.625-4.185Z"
         fill="#008837"
         fill-rule="evenodd"
         data-name="Path 2401"
         id="path9798" />
      <path
         d="M273.054 4331.435h9.556a3.398 3.398 0 0 1 3.395 3.394v25.81a3.398 3.398 0 0 1-3.395 3.393h-9.556a1.54 1.54 0 0 1-1.54-1.538v-29.521c0-.849.691-1.538 1.54-1.538Zm9.556 30.89c.93 0 1.686-.757 1.686-1.685v-25.811c0-.928-.756-1.686-1.686-1.686h-9.387v29.182h9.387Zm0 0"
         fill="#008837"
         fill-rule="evenodd"
         data-name="Path 2402"
         id="path9800" />
      <path
         d="M285.151 4334.486h2.341a2.21 2.21 0 0 1 2.207 2.207v22.603a2.21 2.21 0 0 1-2.207 2.207h-2.34a.854.854 0 0 1-.856-.854v-25.309c0-.472.383-.854.855-.854Zm2.341 25.308a.498.498 0 0 0 .498-.498v-22.603a.498.498 0 0 0-.498-.498h-1.487v23.599h1.487Zm0 0"
         fill="#008837"
         fill-rule="evenodd"
         data-name="Path 2403"
         id="path9802" />
      <path
         d="M308.656 4344.399c.885 2.308 2.341 4.293 4.218 5.728.033.021.065.054.086.076l14.446 11.521c1.154.928 2.902.918 4.045-.02l13.95-11.48a.337.337 0 0 1 .086-.086c1.856-1.468 3.279-3.464 4.143-5.772 2.491-6.796-.476-14.542-6.636-17.293-4.077-1.813-8.726-1.014-12.136 2.104-.939.863-2.395.83-3.323-.055-3.484-3.333-8.274-4.175-12.502-2.2-6.107 2.859-8.977 10.701-6.377 17.477Z"
         fill="#008837"
         fill-rule="evenodd"
         data-name="Path 2405"
         id="path9804" />
      <g
         data-name="Path 2406"
         id="g9810">
        <path
           d="M307.697 4333.852c1.219 0 2.42.076 3.6.226l16.551 2.117a5.192 5.192 0 0 1 3.51 1.913 5.208 5.208 0 0 1 1.138 3.85 5.22 5.22 0 0 1-4.2 4.598 5.22 5.22 0 0 1-1.474.078l-18.789.864a.856.856 0 0 1-.08-1.707l18.85-.867a.799.799 0 0 1 .125.004c.348.034.696.018 1.035-.047l.025-.005a3.522 3.522 0 0 0 2.81-3.097 3.519 3.519 0 0 0-.77-2.595 3.515 3.515 0 0 0-2.377-1.292l-16.57-2.117a26.867 26.867 0 0 0-4.54-.19c-1.077.086-2.765.29-2.783.292l-3.737.447a.862.862 0 0 1-.95-.748.855.855 0 0 1 .748-.95l3.736-.445c.069-.01 1.74-.21 2.882-.301.422-.018.842-.028 1.26-.028Zm0 0"
           fill="#008837"
           fill-rule="evenodd"
           id="path9806" />
        <path
           d="M307.697 4333.852c1.219 0 2.42.076 3.6.226l16.551 2.117a5.192 5.192 0 0 1 3.51 1.913 5.208 5.208 0 0 1 1.138 3.85 5.22 5.22 0 0 1-4.2 4.598 5.22 5.22 0 0 1-1.474.078l-18.789.864a.856.856 0 0 1-.08-1.707l18.85-.867a.799.799 0 0 1 .125.004c.348.034.696.018 1.035-.047l.025-.005a3.522 3.522 0 0 0 2.81-3.097 3.519 3.519 0 0 0-.77-2.595 3.515 3.515 0 0 0-2.377-1.292l-16.57-2.117a26.867 26.867 0 0 0-4.54-.19c-1.077.086-2.765.29-2.783.292l-3.737.447a.862.862 0 0 1-.95-.748.855.855 0 0 1 .748-.95l3.736-.445c.069-.01 1.74-.21 2.882-.301.422-.018.842-.028 1.26-.028h0Zm0 0"
           stroke-linejoin="round"
           stroke-linecap="round"
           stroke-width=".5"
           stroke="#fff"
           fill="transparent"
           id="path9808" />
      </g>
    </g>
  </g>
</svg>
