<?xml version="1.0" encoding="UTF-8" standalone="no"?>
<svg
   width="114.667"
   height="114.667"
   viewBox="1065.683 4058.683 114.667 114.667"
   version="1.1"
   id="svg8419"
   sodipodi:docname="community.svg"
   inkscape:version="1.2.2 (b0a8486541, 2022-12-01)"
   xmlns:inkscape="http://www.inkscape.org/namespaces/inkscape"
   xmlns:sodipodi="http://sodipodi.sourceforge.net/DTD/sodipodi-0.dtd"
   xmlns="http://www.w3.org/2000/svg"
   xmlns:svg="http://www.w3.org/2000/svg">
  <defs
     id="defs8423" />
  <sodipodi:namedview
     id="namedview8421"
     pagecolor="#ffffff"
     bordercolor="#000000"
     borderopacity="0.25"
     inkscape:showpageshadow="2"
     inkscape:pageopacity="0.0"
     inkscape:pagecheckerboard="0"
     inkscape:deskcolor="#d1d1d1"
     showgrid="false"
     inkscape:zoom="6.8197476"
     inkscape:cx="57.406816"
     inkscape:cy="57.3335"
     inkscape:window-width="1920"
     inkscape:window-height="1011"
     inkscape:window-x="0"
     inkscape:window-y="0"
     inkscape:window-maximized="1"
     inkscape:current-layer="svg8419" />
  <g
     data-name="Group 1156"
     id="g8417">
    <g
       data-name="Group 1155"
       id="g8413">
      <path
         d="M1159.604 4058.695h-73.182c-11.449 0-20.727 9.278-20.727 20.727v73.182c0 11.447 9.278 20.727 20.727 20.727h73.182c11.449 0 20.727-9.28 20.727-20.727v-73.182c0-11.449-9.278-20.727-20.727-20.727Zm1.165 110.063-69.554 3.43c-10.88.537-20.138-7.89-20.676-18.823l-3.448-69.888c-.538-10.933 7.844-20.23 18.724-20.767l69.554-3.43c10.88-.536 20.137 7.89 20.677 18.822l3.446 69.89c.54 10.933-7.844 20.23-18.723 20.766Z"
         fill="#008837"
         fill-rule="evenodd"
         data-name="Path 2364"
         id="path8377"
         style="fill:#008837;fill-opacity:0.19737318" />
      <path
         d="m1151.35 4060.107-65.861 6.512c-10.302 1.018-17.82 10.279-16.79 20.682l6.576 66.51c1.028 10.403 10.214 18.012 20.516 16.992l65.862-6.51c10.302-1.02 17.819-10.28 16.79-20.684l-6.576-66.509c-1.029-10.405-10.214-18.012-20.517-16.993Zm10.92 99.841-62.128 9.252c-9.719 1.447-18.787-5.377-20.257-15.242l-9.392-63.068c-1.47-9.867 5.217-19.038 14.936-20.485l62.128-9.252c9.718-1.447 18.788 5.377 20.256 15.242l9.392 63.069c1.47 9.865-5.217 19.037-14.935 20.484Z"
         fill="#008837"
         fill-rule="evenodd"
         data-name="Path 2365"
         id="path8379"
         style="fill:#008837;fill-opacity:0.19737318" />
      <path
         d="m1143.997 4062.4-58.379 11.658c-9.13 1.823-15.025 10.858-13.163 20.178l11.9 59.586c1.861 9.322 10.772 15.4 19.905 13.575l58.377-11.659c9.133-1.824 15.027-10.857 13.165-20.179l-11.9-59.586c-1.862-9.322-10.774-15.398-19.905-13.574Zm18.776 89.275-54.636 13.742c-8.545 2.15-17.263-3.22-19.469-11.993l-14.106-56.085c-2.206-8.773 2.933-17.627 11.48-19.776l54.634-13.742c8.546-2.15 17.263 3.22 19.47 11.993l14.106 56.085c2.207 8.773-2.933 17.627-11.479 19.776Z"
         fill="#008837"
         fill-rule="evenodd"
         data-name="Path 2366"
         id="path8381"
         style="fill:#008837;fill-opacity:0.19737318" />
      <path
         d="m1137.6 4065.4-50.92 15.51c-7.965 2.427-12.39 11.062-9.885 19.286l16.018 52.584c2.505 8.226 10.993 12.926 18.958 10.5l50.92-15.51c7.964-2.426 12.39-11.06 9.885-19.287l-16.018-52.584c-2.505-8.224-10.992-12.926-18.957-10.499Zm24.81 78.63-47.253 16.979c-7.391 2.656-15.62-1.418-18.38-9.098l-17.643-49.103c-2.761-7.68.994-16.06 8.386-18.716l47.252-16.978c7.39-2.656 15.62 1.418 18.38 9.097l17.643 49.103c2.76 7.681-.994 16.06-8.386 18.716Z"
         fill="#008837"
         fill-rule="evenodd"
         data-name="Path 2367"
         id="path8383"
         style="fill:#008837;fill-opacity:0.19737318" />
      <path
         d="m1132.192 4068.942-43.652 18.16c-6.828 2.84-9.954 10.933-6.984 18.074l18.995 45.659c2.972 7.142 10.915 10.63 17.743 7.789l43.653-18.16c6.827-2.84 9.954-10.933 6.983-18.076l-18.995-45.658c-2.972-7.142-10.915-10.629-17.743-7.788Zm29.126 68.135-40.135 19.067c-6.277 2.983-13.913.04-17.055-6.571l-20.081-42.27c-3.142-6.612-.598-14.39 5.68-17.373l40.134-19.066c6.278-2.983 13.914-.04 17.055 6.57l20.082 42.27c3.14 6.612.598 14.39-5.68 17.373Z"
         fill="#008837"
         fill-rule="evenodd"
         data-name="Path 2368"
         id="path8385"
         style="fill:#008837;fill-opacity:0.19737318" />
      <path
         d="m1127.777 4072.859-36.717 19.716c-5.744 3.085-7.747 10.524-4.476 16.618l20.916 38.951c3.273 6.093 10.581 8.531 16.325 5.448l36.718-19.717c5.743-3.085 7.746-10.525 4.474-16.617l-20.916-38.952c-3.273-6.092-10.58-8.531-16.324-5.447Zm31.858 58-33.414 20.125c-5.227 3.147-12.192 1.171-15.557-4.416l-21.512-35.719c-3.365-5.587-1.855-12.669 3.372-15.816l33.414-20.125c5.226-3.148 12.192-1.17 15.557 4.418l21.511 35.718c3.365 5.586 1.857 12.668-3.371 15.815Z"
         fill="#008837"
         fill-rule="evenodd"
         data-name="Path 2369"
         id="path8387"
         style="fill:#008837;fill-opacity:0.19737318" />
      <path
         d="m1124.34 4076.994-30.239 20.307c-4.73 3.175-5.79 9.882-2.368 14.98l21.881 32.582c3.424 5.097 10.032 6.655 14.763 3.478l30.239-20.306c4.73-3.176 5.79-9.883 2.366-14.98l-21.88-32.583c-3.423-5.098-10.031-6.654-14.762-3.478Zm33.159 48.407-27.202 20.28c-4.255 3.172-10.498 1.995-13.946-2.629l-22.038-29.559c-3.447-4.624-2.793-10.945 1.462-14.116l27.202-20.28c4.255-3.174 10.5-1.997 13.947 2.627l22.037 29.56c3.448 4.625 2.793 10.945-1.462 14.117Z"
         fill="#008837"
         fill-rule="evenodd"
         data-name="Path 2370"
         id="path8389"
         style="fill:#008837;fill-opacity:0.19737318" />
      <path
         d="m1121.843 4081.2-24.313 20.061c-3.803 3.14-4.098 9.063-.656 13.234l21.999 26.658c3.44 4.17 9.313 5.007 13.116 1.869l24.313-20.064c3.803-3.138 4.097-9.063.656-13.232l-21.998-26.66c-3.442-4.17-9.314-5.005-13.117-1.867Zm33.199 39.504-21.582 19.674c-3.375 3.077-8.873 2.542-12.28-1.194l-21.776-23.888c-3.406-3.737-3.432-9.26-.056-12.338l21.58-19.673c3.376-3.077 8.875-2.543 12.28 1.194l21.778 23.888c3.406 3.736 3.431 9.26.056 12.337Z"
         fill="#008837"
         fill-rule="evenodd"
         data-name="Path 2371"
         id="path8391"
         style="fill:#008837;fill-opacity:0.19737318" />
      <path
         d="m1120.228 4085.34-19.012 19.129c-2.974 2.991-2.673 8.112.673 11.439l21.388 21.256c3.345 3.324 8.468 3.594 11.443.602l19.01-19.13c2.975-2.992 2.674-8.113-.673-11.438l-21.388-21.256c-3.344-3.325-8.467-3.595-11.441-.602Zm32.158 31.412-16.61 18.449c-2.6 2.885-7.349 2.843-10.61-.092l-20.848-18.772c-3.26-2.936-3.799-7.656-1.2-10.542l16.612-18.447c2.597-2.887 7.347-2.845 10.608.09l20.848 18.772c3.261 2.936 3.798 7.656 1.2 10.542Z"
         fill="#008837"
         fill-rule="evenodd"
         data-name="Path 2372"
         id="path8393"
         style="fill:#008837;fill-opacity:0.19737318" />
      <path
         d="m1119.422 4089.295-14.382 17.65c-2.25 2.76-1.516 7.082 1.64 9.654l20.172 16.439c3.156 2.57 7.539 2.417 9.788-.343l14.383-17.65c2.249-2.76 1.515-7.082-1.64-9.654l-20.173-16.439c-3.156-2.57-7.538-2.417-9.788.343Zm30.23 24.217-12.328 16.749c-1.929 2.62-5.949 2.936-8.98.705l-19.378-14.263c-3.031-2.23-3.926-6.163-1.997-8.783l12.327-16.75c1.929-2.619 5.95-2.935 8.98-.704l19.378 14.263c3.031 2.23 3.926 6.163 1.997 8.783Z"
         fill="#008837"
         fill-rule="evenodd"
         data-name="Path 2373"
         id="path8395"
         style="fill:#008837;fill-opacity:0.19737318" />
      <path
         d="m1119.34 4092.963-10.448 15.767c-1.635 2.467-.616 6.018 2.274 7.935l18.48 12.243c2.89 1.915 6.558 1.469 8.192-.996l10.447-15.768c1.636-2.466.616-6.018-2.274-7.934l-18.48-12.244c-2.89-1.916-6.558-1.47-8.192.997Zm27.598 17.973-8.742 14.718c-1.367 2.303-4.693 2.852-7.429 1.227l-17.493-10.388c-2.735-1.626-3.845-4.81-2.478-7.112l8.742-14.719c1.367-2.301 4.693-2.85 7.43-1.226l17.492 10.39c2.735 1.624 3.845 4.807 2.478 7.11Z"
         fill="#008837"
         fill-rule="evenodd"
         data-name="Path 2374"
         id="path8397"
         style="fill:#008837;fill-opacity:0.19737318" />
      <path
         d="m1119.879 4096.26-7.207 13.622c-1.127 2.13.043 4.96 2.613 6.32l16.432 8.694c2.571 1.36 5.57.734 6.695-1.395l7.208-13.623c1.128-2.131-.042-4.96-2.613-6.32l-16.432-8.695c-2.57-1.359-5.568-.734-6.696 1.397Zm24.46 12.704-5.84 12.491c-.914 1.955-3.597 2.63-5.991 1.51l-15.314-7.16c-2.396-1.12-3.598-3.613-2.684-5.566l5.84-12.492c.915-1.955 3.597-2.63 5.992-1.511l15.315 7.161c2.395 1.12 3.597 3.612 2.683 5.567Z"
         fill="#008837"
         fill-rule="evenodd"
         data-name="Path 2375"
         id="path8399"
         style="fill:#008837;fill-opacity:0.19737318" />
      <path
         d="m1120.938 4099.118-4.639 11.346c-.724 1.774.482 3.947 2.695 4.852l14.153 5.786c2.214.905 4.598.2 5.323-1.575l4.637-11.346c.726-1.775-.481-3.947-2.694-4.852l-14.152-5.786c-2.215-.905-4.598-.2-5.323 1.575Zm18.34 4.222c2.027.716 3.216 2.588 2.654 4.183l-3.594 10.197c-.563 1.594-2.661 2.308-4.688 1.594l-12.964-4.568c-2.027-.715-3.215-2.587-2.653-4.182l3.594-10.197c.561-1.595 2.661-2.308 4.688-1.594l12.963 4.567Z"
         fill="#008837"
         fill-rule="evenodd"
         data-name="Path 2376"
         id="path8401"
         style="fill:#008837;fill-opacity:0.19737318" />
      <path
         d="m1122.403 4101.492-2.699 9.06c-.422 1.416.726 3.01 2.565 3.558l11.756 3.502c1.84.548 3.672-.157 4.094-1.575l2.7-9.059c.421-1.418-.728-3.01-2.567-3.558l-11.756-3.502c-1.837-.548-3.67.157-4.093 1.574Zm4.388-.523 10.547 2.584c1.65.404 2.74 1.74 2.436 2.983l-1.947 7.947c-.305 1.243-1.89 1.924-3.539 1.52l-10.546-2.585c-1.65-.403-2.741-1.739-2.436-2.982l1.947-7.947c.305-1.244 1.888-1.923 3.538-1.52Z"
         fill="#008837"
         fill-rule="evenodd"
         data-name="Path 2377"
         id="path8403"
         style="fill:#008837;fill-opacity:0.19737318" />
      <path
         d="m1125.105 4112.687 9.347 1.807c1.462.282 2.816-.36 3.024-1.435l1.328-6.873c.208-1.075-.809-2.176-2.27-2.458l-9.349-1.807c-1.462-.283-2.815.36-3.023 1.435l-1.329 6.872c-.208 1.076.809 2.176 2.272 2.459Zm.012-8.594c.13-.913 1.271-1.507 2.55-1.325l8.168 1.165c1.278.183 2.207 1.071 2.076 1.986l-.833 5.844c-.13.914-1.272 1.507-2.549 1.326l-8.169-1.166c-1.277-.181-2.208-1.07-2.077-1.985l.834-5.845Z"
         fill="#008837"
         fill-rule="evenodd"
         data-name="Path 2378"
         id="path8405"
         style="fill:#008837;fill-opacity:0.19737318" />
      <path
         d="m1127.512 4111.142 7.021.65c1.098.102 2.046-.432 2.116-1.196l.452-4.873c.07-.764-.762-1.463-1.86-1.566l-7.022-.65c-1.098-.102-2.045.434-2.116 1.196l-.451 4.875c-.071.762.762 1.462 1.86 1.564Zm-.404-5.956c.027-.621.798-1.093 1.724-1.053l5.914.256c.925.04 1.654.575 1.627 1.196l-.171 3.972c-.027.62-.799 1.09-1.723 1.05l-5.916-.254c-.925-.04-1.652-.575-1.626-1.196l.171-3.971Z"
         fill="#008837"
         fill-rule="evenodd"
         data-name="Path 2379"
         id="path8407"
         style="fill:#008837;fill-opacity:0.19737318" />
      <path
         d="m1129.52 4109.567 4.859-.03c.76-.004 1.372-.407 1.37-.899l-.02-3.14c-.003-.49-.621-.885-1.381-.88l-4.859.03c-.76.003-1.374.406-1.37.897l.02 3.14c.002.492.62.886 1.381.882Zm.658-4.519 3.86-.214c.604-.033 1.11.242 1.132.617l.132 2.39c.021.374-.452.704-1.055.737l-3.86.215c-.604.033-1.11-.243-1.132-.616l-.132-2.392c-.021-.373.452-.703 1.055-.737Z"
         fill="#008837"
         fill-rule="evenodd"
         data-name="Path 2380"
         id="path8409"
         style="fill:#008837;fill-opacity:0.19737318" />
      <path
         d="m1131.17 4108.04 2.927-.306c.457-.05.807-.307.777-.577l-.18-1.726c-.029-.27-.423-.45-.88-.403l-2.928.308c-.459.048-.806.307-.778.576l.18 1.727c.03.27.423.45.882.401Z"
         fill="#008837"
         fill-rule="evenodd"
         data-name="Path 2381"
         id="path8411"
         style="fill:#008837;fill-opacity:0.19737318" />
    </g>
    <path
       d="m1154.42 4131.59-1.17-5.932a12.143 12.143 0 0 0-3.348-6.267l-2.055-2.048v-6.982a3.47 3.47 0 0 0 2.195-3.222c0-.394-.067-.773-.19-1.127a3.468 3.468 0 0 0 2.314-4.524 3.47 3.47 0 0 0 2.321-3.27 3.47 3.47 0 0 0-2.321-3.27 3.467 3.467 0 0 0-3.253-4.655l-6.941.001a3.513 3.513 0 0 0-.716-5.14 3.485 3.485 0 0 0-2.665-.547l-5.933 1.168a12.143 12.143 0 0 0-6.267 3.349l-2.048 2.055h-6.981a3.47 3.47 0 0 0-3.223-2.195 3.44 3.44 0 0 0-1.127.19 3.468 3.468 0 0 0-4.524-2.314 3.469 3.469 0 0 0-3.269-2.321c-1.51 0-2.796.971-3.27 2.321a3.467 3.467 0 0 0-4.655 3.253v6.941a3.51 3.51 0 0 0-5.687 3.381l1.17 5.933a12.123 12.123 0 0 0 3.348 6.267l2.054 2.048v6.981a3.47 3.47 0 0 0-2.195 3.223c0 .394.067.772.19 1.127a3.468 3.468 0 0 0-2.314 4.524 3.47 3.47 0 0 0-2.321 3.269 3.47 3.47 0 0 0 2.321 3.27 3.467 3.467 0 0 0 3.253 4.655h6.941a3.513 3.513 0 0 0 2.694 5.755c.227 0 .458-.023.687-.066l5.933-1.17a12.143 12.143 0 0 0 6.267-3.35l2.048-2.054h6.981a3.468 3.468 0 0 0 4.35 2.005 3.468 3.468 0 0 0 4.524 2.314 3.469 3.469 0 0 0 3.269 2.321 3.47 3.47 0 0 0 3.27-2.321 3.467 3.467 0 0 0 4.655-3.253v-6.941a3.511 3.511 0 0 0 5.687-3.381Zm-29.567-37.953c.327 0 .64-.129.87-.36l2.41-2.417a9.678 9.678 0 0 1 5.001-2.671l5.933-1.17a1.05 1.05 0 0 1 1.242.851 1.056 1.056 0 0 1-.788 1.206l-2.465.605a1.542 1.542 0 0 0-1.177 1.7 1.54 1.54 0 0 0 1.549 1.372h11.485a1.006 1.006 0 0 1 .12 2.003l-6.804.006a1.23 1.23 0 0 0 0 2.46l8.795-.008c.553 0 1.005.45 1.005 1.005 0 .554-.452 1.005-1.005 1.005h-8.795a1.23 1.23 0 1 0 0 2.458h6.804a1.006 1.006 0 0 1-.12 2.002h-6.684a1.23 1.23 0 1 0 0 2.458h4.47a1.005 1.005 0 0 1-.12 2.002h-12.416a9.653 9.653 0 0 1-6.882-2.856l-1.558-1.56a1.227 1.227 0 0 0-.87-.363h-7.249v-9.728h7.25Zm3.608 32.565h-6.778l-1.197-1.2a12.083 12.083 0 0 0-7.66-3.542v-6.777l1.199-1.197a12.269 12.269 0 0 0 3.54-7.66h6.778l1.197 1.199a12.083 12.083 0 0 0 7.662 3.54v6.778l-1.2 1.196a12.084 12.084 0 0 0-3.541 7.663Zm-30.6-15.309a9.678 9.678 0 0 1-2.672-5.001l-1.17-5.933a1.05 1.05 0 0 1 .852-1.242 1.057 1.057 0 0 1 1.205.788l.605 2.465c.19.778.906 1.271 1.7 1.177a1.542 1.542 0 0 0 1.372-1.547v-11.487a1.005 1.005 0 0 1 2.002-.12l.007 6.804a1.23 1.23 0 1 0 2.459 0v-6.684c0-.075-.003-.15-.007-.223v-1.887a1.005 1.005 0 0 1 2.01 0v1.887a3.075 3.075 0 0 0-.008.223l.008 6.685a1.229 1.229 0 0 0 2.458 0v-6.805a1.005 1.005 0 0 1 2.002.12s-.005 5.98 0 6.026v.658a1.23 1.23 0 1 0 2.459 0v-4.47a1.005 1.005 0 0 1 2.001.12v12.416a9.788 9.788 0 0 1-2.856 6.883l-1.561 1.556c-.23.23-.362.544-.362.87v7.25h-2.458v-3.264a1.23 1.23 0 1 0-2.459 0v3.264h-4.81v-7.25c0-.326-.131-.64-.362-.87l-2.415-2.409Zm23.312 27.495c-.327 0-.64.13-.87.361l-2.41 2.415a9.67 9.67 0 0 1-5.001 2.673l-5.933 1.17a1.039 1.039 0 0 1-.8-.165 1.056 1.056 0 0 1 .345-1.892l2.466-.605a1.539 1.539 0 0 0 1.176-1.7 1.54 1.54 0 0 0-1.548-1.372h-11.485a1.005 1.005 0 0 1-.12-2.002l6.804-.007a1.23 1.23 0 1 0 0-2.459l-8.794.007a1.005 1.005 0 0 1 0-2.01h8.794a1.23 1.23 0 1 0 0-2.459h-6.804a1.006 1.006 0 0 1 .12-2.001h6.684a1.23 1.23 0 1 0 0-2.459h-4.47a1.005 1.005 0 0 1 .12-2.002h12.416a9.658 9.658 0 0 1 6.883 2.857l1.557 1.561c.23.23.543.361.87.361h7.25v9.728h-7.25Zm30.67-5.522a1.056 1.056 0 0 1-1.894-.345l-.604-2.465a1.542 1.542 0 0 0-1.7-1.177 1.542 1.542 0 0 0-1.372 1.548v11.486a1.005 1.005 0 0 1-2.002.12l-.007-6.804a1.23 1.23 0 1 0-2.459 0l.007 8.795a1.005 1.005 0 0 1-2.01 0v-8.795a1.23 1.23 0 1 0-2.458 0v6.804a1.006 1.006 0 0 1-2.002-.12v-6.684a1.23 1.23 0 1 0-2.459 0v4.47a1.006 1.006 0 0 1-2.001-.12v-12.416a9.653 9.653 0 0 1 2.856-6.882l1.561-1.558c.231-.23.362-.543.362-.87v-7.25h4.74v3.73a1.23 1.23 0 1 0 2.46 0v-3.73h2.527v7.25c0 .327.131.64.362.87l2.415 2.41a9.678 9.678 0 0 1 2.672 5l1.17 5.933c.056.28-.002.564-.164.8Z"
       fill="#008837"
       fill-rule="evenodd"
       data-name="Path 2382"
       id="path8415" />
  </g>
</svg>
