<?xml version="1.0" encoding="UTF-8" standalone="no"?>
<svg
   width="114.667"
   height="114.667"
   viewBox="1065.683 4290.683 114.667 114.667"
   version="1.1"
   id="svg11220"
   sodipodi:docname="consultation.svg"
   inkscape:version="1.2.2 (b0a8486541, 2022-12-01)"
   xmlns:inkscape="http://www.inkscape.org/namespaces/inkscape"
   xmlns:sodipodi="http://sodipodi.sourceforge.net/DTD/sodipodi-0.dtd"
   xmlns="http://www.w3.org/2000/svg"
   xmlns:svg="http://www.w3.org/2000/svg">
  <defs
     id="defs11224" />
  <sodipodi:namedview
     id="namedview11222"
     pagecolor="#ffffff"
     bordercolor="#000000"
     borderopacity="0.25"
     inkscape:showpageshadow="2"
     inkscape:pageopacity="0.0"
     inkscape:pagecheckerboard="0"
     inkscape:deskcolor="#d1d1d1"
     showgrid="false"
     inkscape:zoom="6.8197476"
     inkscape:cx="57.406816"
     inkscape:cy="57.3335"
     inkscape:window-width="1920"
     inkscape:window-height="1011"
     inkscape:window-x="0"
     inkscape:window-y="0"
     inkscape:window-maximized="1"
     inkscape:current-layer="svg11220" />
  <g
     data-name="Group 1162"
     id="g11218">
    <g
       data-name="Group 1160"
       id="g11200">
      <path
         d="M1159.604 4290.695h-73.182c-11.449 0-20.727 9.279-20.727 20.727v73.183c0 11.447 9.278 20.727 20.727 20.727h73.182c11.449 0 20.727-9.28 20.727-20.727v-73.183c0-11.448-9.278-20.727-20.727-20.727Zm1.165 110.063-69.554 3.43c-10.88.537-20.138-7.89-20.676-18.822l-3.448-69.889c-.538-10.932 7.844-20.23 18.724-20.767l69.554-3.43c10.88-.536 20.137 7.89 20.677 18.823l3.446 69.89c.54 10.932-7.844 20.23-18.723 20.765Z"
         fill="#008837"
         fill-rule="evenodd"
         data-name="Path 2407"
         id="path11164"
         style="fill:#008837;fill-opacity:0.19514266" />
      <path
         d="m1151.35 4292.108-65.861 6.512c-10.302 1.018-17.82 10.278-16.79 20.682l6.576 66.509c1.028 10.403 10.214 18.012 20.516 16.993l65.862-6.511c10.302-1.02 17.819-10.28 16.79-20.683l-6.576-66.51c-1.029-10.404-10.214-18.012-20.517-16.992Zm10.92 99.84-62.128 9.253c-9.719 1.447-18.787-5.377-20.257-15.242l-9.392-63.069c-1.47-9.866 5.217-19.037 14.936-20.484l62.128-9.252c9.718-1.448 18.788 5.377 20.256 15.242l9.392 63.068c1.47 9.865-5.217 19.037-14.935 20.485Z"
         fill="#008837"
         fill-rule="evenodd"
         data-name="Path 2408"
         id="path11166"
         style="fill:#008837;fill-opacity:0.19514266" />
      <path
         d="m1143.997 4294.4-58.379 11.658c-9.13 1.823-15.025 10.858-13.163 20.178l11.9 59.587c1.861 9.321 10.772 15.399 19.905 13.575l58.377-11.659c9.133-1.824 15.027-10.858 13.165-20.18l-11.9-59.586c-1.862-9.321-10.774-15.398-19.905-13.573Zm18.776 89.276-54.636 13.742c-8.545 2.149-17.263-3.22-19.469-11.994l-14.106-56.084c-2.206-8.774 2.933-17.628 11.48-19.777l54.634-13.742c8.546-2.149 17.263 3.22 19.47 11.994l14.106 56.084c2.207 8.774-2.933 17.627-11.479 19.777Z"
         fill="#008837"
         fill-rule="evenodd"
         data-name="Path 2409"
         id="path11168"
         style="fill:#008837;fill-opacity:0.19514266" />
      <path
         d="m1137.6 4297.4-50.92 15.51c-7.965 2.427-12.39 11.062-9.885 19.287l16.018 52.584c2.505 8.226 10.993 12.926 18.958 10.5l50.92-15.51c7.964-2.426 12.39-11.061 9.885-19.287l-16.018-52.584c-2.505-8.225-10.992-12.926-18.957-10.5Zm24.81 78.63-47.253 16.98c-7.391 2.655-15.62-1.419-18.38-9.098l-17.643-49.103c-2.761-7.68.994-16.06 8.386-18.716l47.252-16.979c7.39-2.656 15.62 1.418 18.38 9.098l17.643 49.103c2.76 7.68-.994 16.06-8.386 18.716Z"
         fill="#008837"
         fill-rule="evenodd"
         data-name="Path 2410"
         id="path11170"
         style="fill:#008837;fill-opacity:0.19514266" />
      <path
         d="m1132.192 4300.943-43.652 18.159c-6.828 2.84-9.954 10.934-6.984 18.075l18.995 45.658c2.972 7.143 10.915 10.63 17.743 7.789l43.653-18.16c6.827-2.84 9.954-10.933 6.983-18.076l-18.995-45.658c-2.972-7.141-10.915-10.628-17.743-7.787Zm29.126 68.135-40.135 19.066c-6.277 2.984-13.913.041-17.055-6.57l-20.081-42.27c-3.142-6.613-.598-14.39 5.68-17.373l40.134-19.067c6.278-2.982 13.914-.04 17.055 6.571l20.082 42.27c3.14 6.612.598 14.39-5.68 17.373Z"
         fill="#008837"
         fill-rule="evenodd"
         data-name="Path 2411"
         id="path11172"
         style="fill:#008837;fill-opacity:0.19514266" />
      <path
         d="m1127.777 4304.859-36.717 19.717c-5.744 3.085-7.747 10.523-4.476 16.617l20.916 38.952c3.273 6.092 10.581 8.53 16.325 5.447l36.718-19.717c5.743-3.085 7.746-10.524 4.474-16.617l-20.916-38.951c-3.273-6.093-10.58-8.532-16.324-5.448Zm31.858 58-33.414 20.125c-5.227 3.148-12.192 1.172-15.557-4.416l-21.512-35.718c-3.365-5.588-1.855-12.67 3.372-15.817l33.414-20.124c5.226-3.148 12.192-1.17 15.557 4.417l21.511 35.719c3.365 5.586 1.857 12.667-3.371 15.815Z"
         fill="#008837"
         fill-rule="evenodd"
         data-name="Path 2412"
         id="path11174"
         style="fill:#008837;fill-opacity:0.19514266" />
      <path
         d="m1124.34 4308.994-30.239 20.307c-4.73 3.176-5.79 9.883-2.368 14.98l21.881 32.583c3.424 5.097 10.032 6.655 14.763 3.478l30.239-20.306c4.73-3.177 5.79-9.884 2.366-14.981l-21.88-32.583c-3.423-5.097-10.031-6.654-14.762-3.478Zm33.159 48.407-27.202 20.281c-4.255 3.172-10.498 1.995-13.946-2.63l-22.038-29.559c-3.447-4.624-2.793-10.944 1.462-14.116l27.202-20.28c4.255-3.173 10.5-1.996 13.947 2.628l22.037 29.56c3.448 4.624 2.793 10.945-1.462 14.116Z"
         fill="#008837"
         fill-rule="evenodd"
         data-name="Path 2413"
         id="path11176"
         style="fill:#008837;fill-opacity:0.19514266" />
      <path
         d="m1121.843 4313.2-24.313 20.062c-3.803 3.14-4.098 9.063-.656 13.234l21.999 26.658c3.44 4.17 9.313 5.006 13.116 1.868l24.313-20.063c3.803-3.138 4.097-9.063.656-13.233l-21.998-26.66c-3.442-4.169-9.314-5.005-13.117-1.866Zm33.199 39.504-21.582 19.674c-3.375 3.077-8.873 2.543-12.28-1.194l-21.776-23.888c-3.406-3.736-3.432-9.26-.056-12.338l21.58-19.673c3.376-3.077 8.875-2.542 12.28 1.194l21.778 23.888c3.406 3.737 3.431 9.26.056 12.337Z"
         fill="#008837"
         fill-rule="evenodd"
         data-name="Path 2414"
         id="path11178"
         style="fill:#008837;fill-opacity:0.19514266" />
      <path
         d="m1120.228 4317.34-19.012 19.13c-2.974 2.99-2.672 8.112.673 11.438l21.388 21.256c3.345 3.325 8.468 3.594 11.443.602l19.01-19.129c2.975-2.993 2.674-8.114-.673-11.439l-21.388-21.256c-3.344-3.324-8.467-3.595-11.441-.602Zm32.158 31.413-16.61 18.448c-2.6 2.885-7.349 2.844-10.61-.092l-20.848-18.772c-3.26-2.935-3.799-7.655-1.2-10.542l16.612-18.447c2.597-2.886 7.347-2.845 10.608.09l20.848 18.773c3.261 2.936 3.798 7.656 1.2 10.542Z"
         fill="#008837"
         fill-rule="evenodd"
         data-name="Path 2415"
         id="path11180"
         style="fill:#008837;fill-opacity:0.19514266" />
      <path
         d="m1119.422 4321.295-14.382 17.65c-2.25 2.76-1.516 7.083 1.64 9.655l20.172 16.438c3.156 2.571 7.539 2.418 9.788-.342l14.383-17.65c2.249-2.761 1.515-7.083-1.64-9.655l-20.173-16.438c-3.156-2.57-7.538-2.418-9.788.342Zm30.23 24.217-12.328 16.75c-1.929 2.62-5.949 2.935-8.98.704l-19.378-14.262c-3.031-2.231-3.926-6.164-1.997-8.783l12.327-16.75c1.929-2.62 5.95-2.935 8.98-.705l19.378 14.263c3.031 2.23 3.926 6.163 1.997 8.783Z"
         fill="#008837"
         fill-rule="evenodd"
         data-name="Path 2416"
         id="path11182"
         style="fill:#008837;fill-opacity:0.19514266" />
      <path
         d="m1119.34 4324.964-10.448 15.767c-1.635 2.466-.616 6.018 2.274 7.934l18.48 12.244c2.89 1.915 6.558 1.468 8.192-.997l10.447-15.767c1.636-2.467.616-6.018-2.274-7.934l-18.48-12.244c-2.89-1.916-6.558-1.47-8.192.997Zm27.598 17.972-8.742 14.719c-1.367 2.302-4.693 2.851-7.429 1.227l-17.493-10.389c-2.735-1.626-3.845-4.81-2.478-7.112l8.742-14.718c1.367-2.302 4.693-2.85 7.43-1.226l17.492 10.389c2.735 1.624 3.845 4.808 2.478 7.11Z"
         fill="#008837"
         fill-rule="evenodd"
         data-name="Path 2417"
         id="path11184"
         style="fill:#008837;fill-opacity:0.19514266" />
      <path
         d="m1119.879 4328.26-7.207 13.622c-1.127 2.131.043 4.96 2.613 6.32l16.432 8.694c2.571 1.36 5.57.735 6.695-1.395l7.208-13.623c1.128-2.13-.042-4.96-2.613-6.32l-16.432-8.694c-2.57-1.36-5.568-.734-6.696 1.396Zm24.46 12.704-5.84 12.492c-.914 1.955-3.597 2.63-5.991 1.51l-15.314-7.16c-2.396-1.121-3.598-3.613-2.684-5.567l5.84-12.491c.915-1.955 3.597-2.63 5.992-1.511l15.315 7.16c2.395 1.12 3.597 3.612 2.683 5.567Z"
         fill="#008837"
         fill-rule="evenodd"
         data-name="Path 2418"
         id="path11186"
         style="fill:#008837;fill-opacity:0.19514266" />
      <path
         d="m1120.938 4331.119-4.639 11.345c-.724 1.774.482 3.948 2.695 4.852l14.153 5.786c2.214.905 4.598.2 5.323-1.575l4.637-11.345c.726-1.775-.481-3.947-2.694-4.852l-14.152-5.786c-2.215-.905-4.598-.2-5.323 1.575Zm18.34 4.222c2.027.715 3.216 2.587 2.654 4.182l-3.594 10.197c-.563 1.594-2.661 2.308-4.688 1.594l-12.964-4.568c-2.027-.714-3.215-2.586-2.653-4.182l3.594-10.196c.561-1.596 2.661-2.309 4.688-1.594l12.963 4.567Z"
         fill="#008837"
         fill-rule="evenodd"
         data-name="Path 2419"
         id="path11188"
         style="fill:#008837;fill-opacity:0.19514266" />
      <path
         d="m1122.403 4333.492-2.699 9.06c-.422 1.417.726 3.01 2.565 3.558l11.756 3.502c1.84.548 3.672-.157 4.094-1.575l2.7-9.059c.421-1.417-.728-3.01-2.567-3.558l-11.756-3.502c-1.837-.547-3.67.158-4.093 1.574Zm4.388-.522 10.547 2.584c1.65.403 2.74 1.739 2.436 2.982l-1.947 7.948c-.305 1.243-1.89 1.924-3.539 1.519l-10.546-2.584c-1.65-.404-2.741-1.74-2.436-2.982l1.947-7.948c.305-1.243 1.888-1.923 3.538-1.52Z"
         fill="#008837"
         fill-rule="evenodd"
         data-name="Path 2420"
         id="path11190"
         style="fill:#008837;fill-opacity:0.19514266" />
      <path
         d="m1125.105 4344.687 9.347 1.807c1.462.283 2.816-.36 3.024-1.435l1.328-6.872c.208-1.075-.809-2.176-2.27-2.459l-9.349-1.807c-1.462-.282-2.815.36-3.023 1.435l-1.329 6.873c-.208 1.075.809 2.176 2.272 2.458Zm.012-8.594c.13-.912 1.271-1.507 2.55-1.324l8.168 1.165c1.278.182 2.207 1.07 2.076 1.985l-.833 5.845c-.13.914-1.272 1.507-2.549 1.326l-8.169-1.166c-1.277-.182-2.208-1.07-2.077-1.986l.834-5.845Z"
         fill="#008837"
         fill-rule="evenodd"
         data-name="Path 2421"
         id="path11192"
         style="fill:#008837;fill-opacity:0.19514266" />
      <path
         d="m1127.512 4343.143 7.021.65c1.098.101 2.046-.433 2.116-1.197l.452-4.873c.07-.763-.762-1.463-1.86-1.566l-7.022-.65c-1.098-.101-2.045.435-2.116 1.197l-.451 4.874c-.071.763.762 1.462 1.86 1.565Zm-.404-5.957c.027-.62.798-1.093 1.724-1.053l5.914.256c.925.04 1.654.576 1.627 1.197l-.171 3.971c-.027.621-.799 1.091-1.723 1.051l-5.916-.254c-.925-.04-1.652-.576-1.626-1.197l.171-3.97Z"
         fill="#008837"
         fill-rule="evenodd"
         data-name="Path 2422"
         id="path11194"
         style="fill:#008837;fill-opacity:0.19514266" />
      <path
         d="m1129.52 4341.568 4.859-.031c.76-.004 1.372-.406 1.37-.898l-.02-3.14c-.003-.491-.621-.886-1.381-.88l-4.859.029c-.76.004-1.374.406-1.37.898l.02 3.14c.002.491.62.886 1.381.882Zm.658-4.52 3.86-.214c.604-.033 1.11.243 1.132.617l.132 2.39c.021.374-.452.705-1.055.738l-3.86.214c-.604.034-1.11-.242-1.132-.615l-.132-2.392c-.021-.373.452-.704 1.055-.737Z"
         fill="#008837"
         fill-rule="evenodd"
         data-name="Path 2423"
         id="path11196"
         style="fill:#008837;fill-opacity:0.19514266" />
      <path
         d="m1131.17 4340.04 2.927-.306c.457-.05.807-.306.777-.577l-.18-1.726c-.029-.27-.423-.45-.88-.402l-2.928.308c-.459.048-.806.306-.778.575l.18 1.727c.03.27.423.45.882.402Z"
         fill="#008837"
         fill-rule="evenodd"
         data-name="Path 2424"
         id="path11198"
         style="fill:#008837;fill-opacity:0.19514266" />
    </g>
    <g
       data-name="Group 1161"
       id="g11216">
      <path
         d="M1145.422 4331.961h-16.111v-1.151c-.007-5.717-4.64-10.35-10.357-10.357h-21.865c-5.718.007-10.35 4.64-10.357 10.357v13.81c.007 5.717 4.639 10.35 10.357 10.356h1.15v9.207c0 .465.281.885.71 1.063.43.178.925.079 1.254-.25l10.021-10.02h2.976v1.151c.007 5.717 4.639 10.35 10.357 10.357h6.428l12.321 12.321a1.15 1.15 0 0 0 1.964-.813v-11.508h1.152c5.716-.006 10.35-4.64 10.357-10.357v-13.81c-.007-5.716-4.64-10.35-10.357-10.356Zm-35.675 20.714c-.305 0-.598.121-.814.337l-8.391 8.392v-7.578c0-.636-.516-1.151-1.152-1.151h-2.301a8.065 8.065 0 0 1-8.056-8.056v-13.81a8.065 8.065 0 0 1 8.056-8.055h21.865a8.065 8.065 0 0 1 8.055 8.056v1.151h-3.452c-5.718.007-10.35 4.64-10.357 10.357v10.357h-3.453Zm43.73 3.452a8.065 8.065 0 0 1-8.055 8.056h-2.303c-.634 0-1.15.516-1.15 1.15v9.881l-10.694-10.694a1.152 1.152 0 0 0-.814-.337h-6.904a8.065 8.065 0 0 1-8.056-8.056v-13.81a8.065 8.065 0 0 1 8.056-8.055h21.865a8.065 8.065 0 0 1 8.055 8.056v13.81Zm0 0"
         fill="#008837"
         fill-rule="evenodd"
         data-name="Path 2425"
         id="path11202" />
      <path
         d="M1147.723 4341.168h-26.468a1.15 1.15 0 1 0 0 2.301h26.468a1.15 1.15 0 0 0 0-2.301Zm0 0"
         fill="#008837"
         fill-rule="evenodd"
         data-name="Path 2426"
         id="path11204" />
      <path
         d="M1147.723 4348.072h-26.468a1.151 1.151 0 0 0 0 2.301h26.468a1.15 1.15 0 0 0 0-2.301Zm0 0"
         fill="#008837"
         fill-rule="evenodd"
         data-name="Path 2427"
         id="path11206" />
      <path
         d="M1147.723 4354.976h-26.468a1.152 1.152 0 0 0 0 2.301h26.468a1.15 1.15 0 0 0 0-2.301Zm0 0"
         fill="#008837"
         fill-rule="evenodd"
         data-name="Path 2428"
         id="path11208" />
      <path
         d="M1093.636 4331.961h24.167a1.152 1.152 0 0 0 0-2.301h-24.167a1.15 1.15 0 0 0 0 2.301Zm0 0"
         fill="#008837"
         fill-rule="evenodd"
         data-name="Path 2429"
         id="path11210" />
      <path
         d="M1110.898 4336.564h-17.262a1.15 1.15 0 0 0 0 2.301h17.262a1.15 1.15 0 0 0 0-2.301Zm0 0"
         fill="#008837"
         fill-rule="evenodd"
         data-name="Path 2430"
         id="path11212" />
      <path
         d="M1109.747 4343.47h-16.11a1.15 1.15 0 0 0 0 2.301h16.11a1.152 1.152 0 0 0 0-2.302Zm0 0"
         fill="#008837"
         fill-rule="evenodd"
         data-name="Path 2431"
         id="path11214" />
    </g>
  </g>
</svg>
