<svg xmlns="http://www.w3.org/2000/svg" width="299.9" height="191.833" viewBox="134.417 4232.383 299.9 191.833"><g data-name="Group 1098"><path d="M368.03 4232.396c-8.523 5.42-16.573 11.627-23.096 20.36-4.63 6.26-8.418 13.1-10.207 21.255-2.999 13.415.947 24.727 11.311 30.671 4.262 2.42 8.997 4.42 13.626 5.156 25.832 4.104 45.929 20.57 63.659 42.14 15.73 19.098 14.467 40.3-3.262 56.61-17.099 15.677-35.985 19.675-56.609 11.416-14.573-5.787-27.094-15.573-38.773-27.41-4.788-4.893-9.786-9.523-14.416-14.573-13.31-14.415-28.988-21.886-46.665-22.938-17.887-1.052-35.774-1.526-53.714-2.052-20.308-.526-40.615-.736-60.87-1.368-4.893-.158-9.733-1.63-14.573-2.525v-13.205c16.098 5.26 32.618 6.84 49.138 6.47 21.622-.525 43.298-1.63 64.92-3.524 10.26-.894 20.518-3.525 30.514-6.524 10.154-2.998 16.678-11.363 19.782-23.569 1.84-7.26 3.84-14.415 5.787-21.623 4.419-16.414 12.205-30.198 22.938-41.456 4.419-4.63 9.206-8.891 13.836-13.31h26.673Zm-15.258 104.8c-4.84 1.21-12.468 2.42-19.728 4.997-7.208 2.578-9.838 8.997-8.102 17.783.684 3.735 1.894 7.418 3.367 10.837 9.68 22.465 25.463 34.723 45.823 38.774 8.733 1.736 17.098.158 24.78-5.419 12.152-8.733 14.836-23.57 5.892-36.827-12.626-18.677-29.199-28.672-52.032-30.146Z" fill="#fff" fill-rule="evenodd" data-name="Path 2208"/><path d="M323.521 4232.396c-.21.316-.368.684-.631.895-14.626 12.205-25.463 28.251-33.776 47.086-2.262 5.103-4.84 9.943-7.312 14.94-7.26 14.521-17.783 24.254-31.409 27.884-12.416 3.367-25.095 6.208-37.721 7.313-14.783 1.263-29.672.737-44.455.263-11.575-.316-22.78-3.735-33.776-8.102v-17.414c4.787 2.21 9.522 4.682 14.415 6.576 19.94 7.734 40.352 7.524 60.975 5.42 28.883-2.947 51.82-17.362 67.71-47.455 7.365-13.994 16.466-26.463 27.672-36.406.21-.21.316-.684.474-1h17.834Z" fill="#fff" fill-rule="evenodd" data-name="Path 2209"/><path d="M272.805 4232.396h17.835c-3.051 3.473-6.26 6.734-9.154 10.417-7.365 9.47-14.468 19.15-21.78 28.62-8.313 10.68-17.678 19.781-29.2 24.621-30.881 13.048-61.29 12.627-90.857-5.892-1.736-1.052-3.472-2.052-5.208-3.104v-23.2c6.576 4.05 13.047 8.417 19.781 12.152 30.514 16.73 59.818 13.626 86.965-9.943 11.206-9.733 21.044-21.886 31.513-32.934l.105-.737Z" fill="#fff" fill-rule="evenodd" data-name="Path 2211"/><path d="M254.339 4232.396c-23.727 25.306-55.556 45.087-90.279 25.253-8.89-5.05-17.519-10.68-26.252-15.993-1.105-.684-2.21-1.21-3.367-1.79v-7.47h41.141c3.42 1.316 6.786 3.052 10.312 3.84 11.89 2.79 23.569 1.737 34.88-3.84h33.565Z" fill="#fff" fill-rule="evenodd" data-name="Path 2212"/></g></svg>