<?xml version="1.0" encoding="UTF-8" standalone="no"?>
<svg
   width="112.1"
   height="112.1"
   viewBox="254.967 3827.967 112.1 112.1"
   version="1.1"
   id="svg2727"
   sodipodi:docname="empowerment.svg"
   inkscape:version="1.2.2 (b0a8486541, 2022-12-01)"
   xmlns:inkscape="http://www.inkscape.org/namespaces/inkscape"
   xmlns:sodipodi="http://sodipodi.sourceforge.net/DTD/sodipodi-0.dtd"
   xmlns="http://www.w3.org/2000/svg"
   xmlns:svg="http://www.w3.org/2000/svg">
  <defs
     id="defs2731" />
  <sodipodi:namedview
     id="namedview2729"
     pagecolor="#ffffff"
     bordercolor="#000000"
     borderopacity="0.25"
     inkscape:showpageshadow="2"
     inkscape:pageopacity="0.0"
     inkscape:pagecheckerboard="0"
     inkscape:deskcolor="#d1d1d1"
     showgrid="false"
     inkscape:zoom="6.9759145"
     inkscape:cx="56.265025"
     inkscape:cy="56.049999"
     inkscape:window-width="1920"
     inkscape:window-height="1011"
     inkscape:window-x="0"
     inkscape:window-y="0"
     inkscape:window-maximized="1"
     inkscape:current-layer="svg2727" />
  <g
     data-name="Group 1148"
     id="g2725">
    <g
       data-name="Group 1146"
       id="g2707">
      <path
         d="M346.788 3827.974h-71.55c-11.192 0-20.264 9.071-20.264 20.264v71.55c0 11.191 9.072 20.264 20.264 20.264h71.55c11.192 0 20.264-9.073 20.264-20.264v-71.55c0-11.193-9.072-20.264-20.264-20.264Zm1.138 107.607-68.001 3.353c-10.638.525-19.689-7.714-20.215-18.403l-3.37-68.328c-.527-10.689 7.668-19.779 18.305-20.304l68.002-3.353c10.637-.524 19.687 7.714 20.215 18.402l3.37 68.33c.527 10.689-7.67 19.779-18.306 20.303Z"
         fill="#008837"
         fill-rule="evenodd"
         data-name="Path 2297"
         id="path2671"
         style="fill:#008837;fill-opacity:0.20438179" />
      <path
         d="m338.718 3829.355-64.392 6.367c-10.072.995-17.421 10.049-16.416 20.22l6.43 65.025c1.006 10.17 9.986 17.61 20.059 16.613l64.391-6.365c10.072-.997 17.422-10.05 16.416-20.222l-6.43-65.024c-1.005-10.173-9.986-17.61-20.058-16.614Zm10.675 97.613-60.74 9.045c-9.502 1.415-18.368-5.257-19.805-14.902l-9.183-61.66c-1.437-9.647 5.101-18.613 14.603-20.028l60.74-9.045c9.502-1.415 18.37 5.257 19.805 14.901l9.183 61.661c1.437 9.645-5.101 18.613-14.603 20.028Z"
         fill="#008837"
         fill-rule="evenodd"
         data-name="Path 2298"
         id="path2673"
         style="fill:#008837;fill-opacity:0.20438179" />
      <path
         d="m331.529 3831.596-57.076 11.398c-8.927 1.783-14.69 10.616-12.87 19.728l11.635 58.256c1.82 9.114 10.532 15.056 19.46 13.272l57.075-11.398c8.928-1.784 14.69-10.616 12.87-19.73l-11.634-58.256c-1.82-9.113-10.533-15.054-19.46-13.27Zm18.357 87.283-53.417 13.435c-8.355 2.102-16.878-3.147-19.034-11.725l-13.792-54.833c-2.156-8.578 2.868-17.234 11.224-19.335l53.415-13.435c8.355-2.102 16.877 3.148 19.035 11.725l13.791 54.833c2.158 8.578-2.867 17.234-11.222 19.335Z"
         fill="#008837"
         fill-rule="evenodd"
         data-name="Path 2299"
         id="path2675"
         style="fill:#008837;fill-opacity:0.20438179" />
      <path
         d="m325.275 3834.53-49.784 15.163c-7.787 2.373-12.114 10.815-9.664 18.856l15.66 51.41c2.449 8.043 10.748 12.638 18.535 10.267l49.783-15.165c7.787-2.371 12.114-10.814 9.664-18.856l-15.66-51.41c-2.449-8.041-10.747-12.638-18.534-10.265Zm24.255 76.875-46.197 16.6c-7.227 2.596-15.272-1.387-17.97-8.895l-17.25-48.007c-2.7-7.508.972-15.702 8.199-18.298l46.197-16.6c7.226-2.596 15.272 1.386 17.97 8.895l17.25 48.007c2.698 7.51-.972 15.702-8.199 18.298Z"
         fill="#008837"
         fill-rule="evenodd"
         data-name="Path 2300"
         id="path2677"
         style="fill:#008837;fill-opacity:0.20438179" />
      <path
         d="m319.987 3837.993-42.677 17.753c-6.676 2.778-9.732 10.69-6.828 17.672l18.57 44.64c2.906 6.983 10.672 10.392 17.348 7.614l42.678-17.753c6.674-2.778 9.732-10.69 6.827-17.673l-18.57-44.64c-2.906-6.981-10.672-10.391-17.348-7.613Zm28.476 66.614-39.239 18.64c-6.138 2.918-13.603.041-16.675-6.423l-19.632-41.326c-3.073-6.465-.585-14.069 5.552-16.986l39.24-18.64c6.137-2.916 13.602-.04 16.673 6.424l19.634 41.326c3.07 6.464.585 14.07-5.553 16.985Z"
         fill="#008837"
         fill-rule="evenodd"
         data-name="Path 2301"
         id="path2679"
         style="fill:#008837;fill-opacity:0.20438179" />
      <path
         d="m315.67 3841.822-35.897 19.277c-5.616 3.016-7.574 10.288-4.376 16.246l20.45 38.082c3.2 5.957 10.344 8.34 15.96 5.326l35.898-19.277c5.615-3.016 7.573-10.29 4.375-16.246l-20.45-38.082c-3.2-5.957-10.344-8.341-15.96-5.326Zm31.148 56.706-32.67 19.675c-5.109 3.078-11.919 1.146-15.208-4.317l-21.032-34.922c-3.29-5.462-1.814-12.386 3.296-15.463l32.669-19.676c5.11-3.077 11.92-1.143 15.209 4.32l21.032 34.92c3.29 5.462 1.815 12.386-3.296 15.463Z"
         fill="#008837"
         fill-rule="evenodd"
         data-name="Path 2302"
         id="path2681"
         style="fill:#008837;fill-opacity:0.20438179" />
      <path
         d="m312.31 3845.864-29.563 19.854c-4.626 3.105-5.661 9.662-2.316 14.646l21.393 31.855c3.347 4.984 9.808 6.507 14.433 3.4l29.564-19.852c4.625-3.106 5.66-9.663 2.314-14.646l-21.392-31.856c-3.347-4.984-9.807-6.505-14.432-3.4Zm32.42 47.327-26.596 19.828c-4.16 3.101-10.264 1.95-13.634-2.57l-21.546-28.9c-3.37-4.52-2.731-10.7 1.429-13.8l26.595-19.829c4.16-3.102 10.265-1.951 13.635 2.57l21.545 28.9c3.372 4.521 2.731 10.7-1.429 13.801Z"
         fill="#008837"
         fill-rule="evenodd"
         data-name="Path 2303"
         id="path2683"
         style="fill:#008837;fill-opacity:0.20438179" />
      <path
         d="m309.869 3849.976-23.77 19.614c-3.719 3.07-4.007 8.861-.641 12.939l21.507 26.063c3.364 4.077 9.106 4.895 12.824 1.827l23.77-19.616c3.718-3.068 4.005-8.86.641-12.937l-21.507-26.065c-3.365-4.076-9.106-4.893-12.824-1.825Zm32.458 38.623-21.1 19.235c-3.3 3.008-8.675 2.486-12.005-1.167l-21.291-23.355c-3.33-3.653-3.355-9.053-.055-12.063l21.1-19.234c3.3-3.008 8.675-2.486 12.005 1.167l21.291 23.355c3.33 3.653 3.355 9.054.055 12.062Z"
         fill="#008837"
         fill-rule="evenodd"
         data-name="Path 2304"
         id="path2685"
         style="fill:#008837;fill-opacity:0.20438179" />
      <path
         d="m308.29 3854.024-18.588 18.702c-2.908 2.925-2.613 7.932.658 11.184l20.91 20.782c3.271 3.25 8.28 3.513 11.188.588l18.587-18.702c2.908-2.926 2.613-7.933-.658-11.183l-20.91-20.782c-3.27-3.25-8.28-3.515-11.187-.589Zm31.44 30.712-16.24 18.036c-2.54 2.821-7.184 2.78-10.373-.09l-20.382-18.353c-3.188-2.87-3.714-7.484-1.173-10.306l16.24-18.036c2.54-2.821 7.185-2.781 10.373.09l20.383 18.352c3.188 2.87 3.713 7.485 1.172 10.307Z"
         fill="#008837"
         fill-rule="evenodd"
         data-name="Path 2305"
         id="path2687"
         style="fill:#008837;fill-opacity:0.20438179" />
      <path
         d="m307.502 3857.89-14.06 17.257c-2.201 2.698-1.483 6.925 1.602 9.44l19.722 16.071c3.086 2.513 7.37 2.363 9.57-.335l14.061-17.256c2.2-2.7 1.482-6.925-1.603-9.44l-19.723-16.07c-3.085-2.514-7.369-2.364-9.57.334Zm29.555 23.677-12.053 16.376c-1.885 2.561-5.816 2.87-8.78.69l-18.944-13.945c-2.964-2.181-3.838-6.026-1.953-8.587l12.052-16.376c1.886-2.561 5.816-2.87 8.78-.689l18.945 13.944c2.964 2.181 3.838 6.026 1.953 8.587Z"
         fill="#008837"
         fill-rule="evenodd"
         data-name="Path 2306"
         id="path2689"
         style="fill:#008837;fill-opacity:0.20438179" />
      <path
         d="m307.421 3861.478-10.214 15.415c-1.599 2.411-.602 5.883 2.224 7.757l18.066 11.97c2.826 1.873 6.413 1.436 8.01-.974l10.214-15.415c1.599-2.412.602-5.884-2.224-7.757l-18.066-11.97c-2.826-1.874-6.413-1.438-8.01.974Zm26.983 17.571-8.546 14.39c-1.337 2.251-4.59 2.788-7.264 1.2l-17.102-10.157c-2.675-1.59-3.76-4.702-2.423-6.953l8.546-14.39c1.337-2.25 4.589-2.787 7.265-1.199l17.1 10.157c2.676 1.588 3.76 4.7 2.424 6.952Z"
         fill="#008837"
         fill-rule="evenodd"
         data-name="Path 2307"
         id="path2691"
         style="fill:#008837;fill-opacity:0.20438179" />
      <path
         d="m307.949 3864.7-7.046 13.319c-1.102 2.083.042 4.849 2.555 6.179l16.065 8.5c2.513 1.329 5.445.717 6.546-1.364l7.047-13.32c1.102-2.083-.042-4.849-2.555-6.179l-16.066-8.5c-2.513-1.328-5.443-.717-6.546 1.366Zm23.915 12.42-5.71 12.214c-.895 1.91-3.517 2.571-5.858 1.476l-14.973-7c-2.342-1.096-3.517-3.532-2.623-5.442l5.71-12.213c.894-1.911 3.516-2.572 5.857-1.478l14.974 7.002c2.341 1.094 3.516 3.53 2.623 5.442Z"
         fill="#008837"
         fill-rule="evenodd"
         data-name="Path 2308"
         id="path2693"
         style="fill:#008837;fill-opacity:0.20438179" />
      <path
         d="m308.984 3867.495-4.535 11.093c-.709 1.734.47 3.859 2.635 4.743l13.837 5.657c2.164.885 4.495.196 5.204-1.54l4.533-11.092c.71-1.735-.47-3.859-2.634-4.744l-13.836-5.656c-2.165-.885-4.495-.196-5.204 1.54Zm17.931 4.128c1.982.7 3.144 2.53 2.594 4.09l-3.513 9.969c-.55 1.558-2.602 2.256-4.584 1.558l-12.674-4.466c-1.981-.698-3.144-2.529-2.594-4.088l3.514-9.97c.548-1.56 2.602-2.256 4.583-1.558l12.674 4.465Z"
         fill="#008837"
         fill-rule="evenodd"
         data-name="Path 2309"
         id="path2695"
         style="fill:#008837;fill-opacity:0.20438179" />
      <path
         d="m310.416 3869.816-2.638 8.858c-.413 1.385.71 2.943 2.508 3.478l11.494 3.424c1.798.536 3.589-.153 4.002-1.54l2.64-8.856c.411-1.387-.712-2.943-2.51-3.479l-11.493-3.424c-1.797-.535-3.59.154-4.003 1.539Zm4.29-.51 10.312 2.525c1.613.395 2.68 1.7 2.382 2.916l-1.903 7.77c-.299 1.216-1.848 1.882-3.46 1.485l-10.311-2.526c-1.613-.395-2.68-1.7-2.382-2.916l1.903-7.77c.299-1.215 1.847-1.88 3.46-1.485Z"
         fill="#008837"
         fill-rule="evenodd"
         data-name="Path 2310"
         id="path2697"
         style="fill:#008837;fill-opacity:0.20438179" />
      <path
         d="m313.058 3880.761 9.139 1.767c1.429.276 2.752-.352 2.956-1.404l1.299-6.718c.203-1.052-.791-2.128-2.22-2.404l-9.14-1.767c-1.43-.276-2.753.352-2.956 1.404l-1.299 6.718c-.203 1.052.79 2.128 2.221 2.404Zm.012-8.402c.128-.892 1.243-1.474 2.492-1.295l7.987 1.139c1.25.178 2.157 1.047 2.03 1.94l-.815 5.715c-.127.894-1.244 1.474-2.492 1.296l-7.986-1.14c-1.25-.177-2.16-1.046-2.031-1.94l.815-5.715Z"
         fill="#008837"
         fill-rule="evenodd"
         data-name="Path 2311"
         id="path2699"
         style="fill:#008837;fill-opacity:0.20438179" />
      <path
         d="m315.411 3879.251 6.865.636c1.074.099 2-.424 2.069-1.17l.442-4.765c.069-.746-.746-1.43-1.82-1.53l-6.864-.636c-1.073-.1-2 .424-2.069 1.17l-.441 4.765c-.07.746.745 1.43 1.818 1.53Zm-.394-5.824c.026-.607.78-1.068 1.685-1.029l5.782.25c.905.04 1.617.563 1.591 1.17l-.168 3.883c-.026.607-.78 1.067-1.684 1.028l-5.784-.25c-.904-.038-1.615-.562-1.59-1.17l.168-3.882Z"
         fill="#008837"
         fill-rule="evenodd"
         data-name="Path 2312"
         id="path2701"
         style="fill:#008837;fill-opacity:0.20438179" />
      <path
         d="m317.375 3877.711 4.75-.03c.742-.004 1.342-.397 1.34-.878l-.02-3.07c-.003-.48-.607-.866-1.35-.86l-4.75.028c-.743.004-1.343.397-1.34.878l.019 3.07c.002.48.607.866 1.35.862Zm.643-4.418 3.775-.21c.59-.032 1.085.237 1.106.604l.129 2.336c.02.366-.442.689-1.032.721l-3.774.21c-.59.033-1.086-.237-1.107-.602l-.129-2.338c-.02-.365.442-.688 1.032-.72Z"
         fill="#008837"
         fill-rule="evenodd"
         data-name="Path 2313"
         id="path2703"
         style="fill:#008837;fill-opacity:0.20438179" />
      <path
         d="m318.988 3876.218 2.862-.3c.447-.048.788-.3.76-.564l-.178-1.687c-.027-.264-.413-.44-.86-.393l-2.862.3c-.448.047-.788.3-.76.563l.176 1.689c.03.264.413.44.862.392Z"
         fill="#008837"
         fill-rule="evenodd"
         data-name="Path 2314"
         id="path2705"
         style="fill:#008837;fill-opacity:0.20438179" />
    </g>
    <g
       data-name="Group 1147"
       id="g2723">
      <path
         d="M329.758 3876.34a4.43 4.43 0 0 0-2.779.995 5.111 5.111 0 0 0-4.255-2.284 5.09 5.09 0 0 0-2.866.882c-.701-1.991-2.581-3.43-4.808-3.43a5.09 5.09 0 0 0-3.694 1.595c-.925-1.142-2.32-1.889-3.9-1.889h-.266a5.042 5.042 0 0 0-5.035 5.037v2.282l-4.573 2.83a1.28 1.28 0 0 0-.474.521l-3.274 6.638a10.728 10.728 0 0 0-.898 6.782 10.513 10.513 0 0 0 2.912 5.453l10.25 10.672v8.68c0 .706.571 1.279 1.279 1.279h24.3a1.28 1.28 0 0 0 1.28-1.28v-5.207c0-1.018.067-2.042.204-3.045l.692-5.134c.254-1.885.382-3.805.382-5.703v-21.838c0-.253-.093-.476-.22-.675-.565-1.824-2.25-3.162-4.257-3.162Zm0 2.557c1.058 0 1.92.86 1.92 1.919v6.384a1.92 1.92 0 0 1-3.837 0v-6.384c0-1.058.86-1.92 1.917-1.92Zm-7.034-1.289a2.56 2.56 0 0 1 2.558 2.559v6.405a2.56 2.56 0 0 1-5.117 0v-6.405a2.562 2.562 0 0 1 2.56-2.559Zm-7.674-2.548a2.561 2.561 0 0 1 2.558 2.559v8.953a2.555 2.555 0 0 1-1.648 2.381l.09-.17a1.28 1.28 0 0 0-.497-1.703l-3.061-1.753v-7.708a2.562 2.562 0 0 1 2.558-2.56Zm-7.86-.293h.266a2.482 2.482 0 0 1 2.478 2.479v6.616l-5.222-2.992v-.242a1.25 1.25 0 0 0 0-.896v-2.486a2.482 2.482 0 0 1 2.478-2.48Zm24.126 32.608-.691 5.134a25.55 25.55 0 0 0-.227 3.387v3.928h-21.743v-7.915c0-.33-.128-.647-.356-.886l-10.628-11.066a7.984 7.984 0 0 1-2.226-4.153 8.166 8.166 0 0 1 .683-5.154l3.107-6.298c.091-.028.185-.042.273-.092l2.987-1.712 10.718 6.14-.058.11c-1.385 2.645-4.453 3.983-7.133 3.117-1.114-.36-1.897-.997-2.395-1.947a1.279 1.279 0 1 0-2.266 1.187c.812 1.55 2.116 2.625 3.873 3.193.803.26 1.63.383 2.45.383 1.578 0 3.14-.46 4.5-1.293.044.01.081.037.127.044 3.02.434 5.297 2.914 5.297 5.769v7.115a1.28 1.28 0 0 0 2.557 0v-7.115c0-3.28-2.045-6.204-5.034-7.572a5.084 5.084 0 0 0 3.756-1.76c.938 1.074 2.302 1.768 3.837 1.768 1.441 0 2.74-.604 3.67-1.568.822.945 2.017 1.556 3.364 1.556.69 0 1.336-.168 1.92-.448v10.787c0 1.784-.122 3.588-.362 5.361Zm0 0"
         fill="#008837"
         fill-rule="evenodd"
         data-name="Path 2315"
         id="path2709" />
      <path
         d="m292.781 3880.42-14.068-10.232a1.279 1.279 0 0 0-1.506 2.07l14.07 10.232a1.277 1.277 0 0 0 1.786-.281 1.28 1.28 0 0 0-.282-1.788Zm0 0"
         fill="#008837"
         fill-rule="evenodd"
         data-name="Path 2316"
         id="path2711" />
      <path
         d="M296.13 3875.84a1.278 1.278 0 1 0 2.028-1.56l-12.79-16.626a1.28 1.28 0 0 0-2.026 1.56l12.789 16.626Zm0 0"
         fill="#008837"
         fill-rule="evenodd"
         data-name="Path 2317"
         id="path2713" />
      <path
         d="M302.305 3869.002a1.282 1.282 0 0 0 1.571.897 1.28 1.28 0 0 0 .898-1.571l-5.573-20.386a1.278 1.278 0 1 0-2.468.674l5.572 20.386Zm0 0"
         fill="#008837"
         fill-rule="evenodd"
         data-name="Path 2318"
         id="path2715" />
      <path
         d="m312.412 3868.663.081.002c.67 0 1.234-.52 1.275-1.198l1.28-20.464a1.28 1.28 0 0 0-1.196-1.356 1.272 1.272 0 0 0-1.356 1.196l-1.28 20.464a1.278 1.278 0 0 0 1.196 1.356Zm0 0"
         fill="#008837"
         fill-rule="evenodd"
         data-name="Path 2319"
         id="path2717" />
      <path
         d="M320.907 3869.826a1.279 1.279 0 0 0 1.699-.623l8.133-17.564a1.278 1.278 0 1 0-2.32-1.075l-8.134 17.563a1.278 1.278 0 0 0 .622 1.7Zm0 0"
         fill="#008837"
         fill-rule="evenodd"
         data-name="Path 2320"
         id="path2719" />
      <path
         d="M330.965 3871.732a1.277 1.277 0 0 0 1.8-.176l12.289-14.955a1.278 1.278 0 1 0-1.975-1.623l-12.289 14.954a1.278 1.278 0 0 0 .175 1.8Zm0 0"
         fill="#008837"
         fill-rule="evenodd"
         data-name="Path 2321"
         id="path2721" />
    </g>
  </g>
</svg>
