<?xml version="1.0" encoding="UTF-8" standalone="no"?>
<svg
   width="112.1"
   height="112.1"
   viewBox="254.967 3595.967 112.1 112.1"
   version="1.1"
   id="svg252"
   sodipodi:docname="fund.svg"
   inkscape:version="1.2.2 (b0a8486541, 2022-12-01)"
   xmlns:inkscape="http://www.inkscape.org/namespaces/inkscape"
   xmlns:sodipodi="http://sodipodi.sourceforge.net/DTD/sodipodi-0.dtd"
   xmlns="http://www.w3.org/2000/svg"
   xmlns:svg="http://www.w3.org/2000/svg">
  <defs
     id="defs256" />
  <sodipodi:namedview
     id="namedview254"
     pagecolor="#ffffff"
     bordercolor="#000000"
     borderopacity="0.25"
     inkscape:showpageshadow="2"
     inkscape:pageopacity="0.0"
     inkscape:pagecheckerboard="0"
     inkscape:deskcolor="#d1d1d1"
     showgrid="false"
     inkscape:zoom="6.9759145"
     inkscape:cx="56.265025"
     inkscape:cy="56.049999"
     inkscape:window-width="1920"
     inkscape:window-height="1011"
     inkscape:window-x="0"
     inkscape:window-y="0"
     inkscape:window-maximized="1"
     inkscape:current-layer="svg252" />
  <g
     data-name="Group 1142"
     id="g250">
    <g
       data-name="Group 1139"
       id="g224">
      <path
         d="M346.788 3595.974h-71.55c-11.193 0-20.264 9.071-20.264 20.264v71.55c0 11.191 9.071 20.264 20.264 20.264h71.55c11.192 0 20.264-9.073 20.264-20.264v-71.55c0-11.193-9.072-20.264-20.264-20.264Zm1.138 107.607-68.002 3.353c-10.637.525-19.688-7.714-20.214-18.402l-3.37-68.33c-.527-10.688 7.668-19.778 18.305-20.303l68.002-3.353c10.637-.524 19.688 7.714 20.215 18.402l3.37 68.33c.527 10.689-7.67 19.779-18.306 20.303Z"
         fill="#008837"
         fill-rule="evenodd"
         data-name="Path 2247"
         id="path188"
         style="fill:#008837;fill-opacity:0.20391758" />
      <path
         d="m338.718 3597.355-64.392 6.367c-10.072.995-17.421 10.048-16.416 20.22l6.43 65.025c1.006 10.171 9.986 17.61 20.058 16.614l64.392-6.366c10.073-.997 17.422-10.05 16.416-20.222l-6.43-65.025c-1.005-10.172-9.986-17.61-20.058-16.613Zm10.675 97.613-60.74 9.045c-9.502 1.415-18.368-5.257-19.805-14.902l-9.183-61.66c-1.437-9.647 5.1-18.613 14.603-20.028l60.74-9.046c9.502-1.415 18.37 5.257 19.805 14.902l9.183 61.661c1.437 9.645-5.1 18.613-14.603 20.028Z"
         fill="#008837"
         fill-rule="evenodd"
         data-name="Path 2248"
         id="path190"
         style="fill:#008837;fill-opacity:0.20391758" />
      <path
         d="m331.529 3599.595-57.076 11.4c-8.928 1.781-14.69 10.615-12.87 19.727l11.634 58.256c1.82 9.114 10.533 15.056 19.461 13.273l57.075-11.4c8.928-1.783 14.69-10.615 12.87-19.728l-11.634-58.257c-1.82-9.113-10.533-15.054-19.46-13.27Zm18.357 87.285-53.417 13.434c-8.355 2.102-16.878-3.147-19.034-11.725l-13.792-54.833c-2.156-8.578 2.867-17.234 11.224-19.335l53.415-13.435c8.355-2.102 16.877 3.147 19.035 11.725l13.792 54.833c2.157 8.578-2.868 17.234-11.223 19.336Z"
         fill="#008837"
         fill-rule="evenodd"
         data-name="Path 2249"
         id="path192"
         style="fill:#008837;fill-opacity:0.20391758" />
      <path
         d="m325.275 3602.53-49.784 15.163c-7.787 2.373-12.114 10.815-9.665 18.856l15.66 51.41c2.45 8.043 10.749 12.638 18.536 10.267l49.783-15.165c7.787-2.371 12.114-10.814 9.665-18.856l-15.66-51.41c-2.45-8.042-10.748-12.638-18.535-10.266Zm24.255 76.875-46.197 16.6c-7.227 2.596-15.272-1.387-17.97-8.895l-17.25-48.007c-2.7-7.508.972-15.702 8.199-18.299l46.197-16.6c7.226-2.596 15.272 1.387 17.97 8.895l17.25 48.008c2.698 7.51-.972 15.702-8.199 18.298Z"
         fill="#008837"
         fill-rule="evenodd"
         data-name="Path 2250"
         id="path194"
         style="fill:#008837;fill-opacity:0.20391758" />
      <path
         d="m319.987 3605.992-42.677 17.754c-6.676 2.778-9.733 10.69-6.829 17.672l18.571 44.64c2.906 6.983 10.672 10.392 17.348 7.615l42.678-17.754c6.675-2.778 9.732-10.69 6.827-17.673l-18.57-44.64c-2.906-6.982-10.672-10.391-17.348-7.614Zm28.476 66.615-39.239 18.641c-6.138 2.917-13.603.04-16.675-6.424l-19.633-41.327c-3.072-6.464-.585-14.068 5.553-16.985l39.24-18.64c6.137-2.917 13.602-.04 16.673 6.423l19.634 41.327c3.07 6.464.585 14.07-5.553 16.985Z"
         fill="#008837"
         fill-rule="evenodd"
         data-name="Path 2251"
         id="path196"
         style="fill:#008837;fill-opacity:0.20391758" />
      <path
         d="m315.67 3609.822-35.897 19.276c-5.616 3.016-7.574 10.289-4.376 16.247l20.45 38.082c3.2 5.957 10.344 8.34 15.96 5.326l35.898-19.277c5.615-3.016 7.573-10.29 4.375-16.246l-20.45-38.082c-3.2-5.957-10.344-8.341-15.96-5.326Zm31.148 56.706-32.67 19.675c-5.109 3.078-11.919 1.146-15.209-4.317l-21.031-34.922c-3.29-5.463-1.814-12.386 3.296-15.463l32.669-19.676c5.11-3.077 11.92-1.144 15.21 4.32l21.03 34.92c3.29 5.462 1.816 12.385-3.295 15.463Z"
         fill="#008837"
         fill-rule="evenodd"
         data-name="Path 2252"
         id="path198"
         style="fill:#008837;fill-opacity:0.20391758" />
      <path
         d="m312.31 3613.864-29.564 19.854c-4.625 3.105-5.66 9.662-2.315 14.646l21.393 31.855c3.347 4.984 9.808 6.507 14.433 3.4l29.564-19.852c4.625-3.106 5.66-9.663 2.314-14.646l-21.392-31.856c-3.347-4.984-9.807-6.505-14.432-3.4Zm32.42 47.327-26.596 19.828c-4.16 3.101-10.264 1.95-13.634-2.57l-21.546-28.9c-3.37-4.52-2.731-10.7 1.429-13.8l26.595-19.829c4.16-3.102 10.265-1.952 13.635 2.57l21.545 28.9c3.372 4.521 2.731 10.7-1.429 13.801Z"
         fill="#008837"
         fill-rule="evenodd"
         data-name="Path 2253"
         id="path200"
         style="fill:#008837;fill-opacity:0.20391758" />
      <path
         d="m309.869 3617.976-23.77 19.614c-3.719 3.07-4.007 8.861-.641 12.939l21.507 26.063c3.364 4.077 9.106 4.895 12.824 1.827l23.77-19.616c3.719-3.068 4.005-8.86.641-12.937l-21.507-26.065c-3.365-4.076-9.106-4.893-12.824-1.825Zm32.458 38.623-21.1 19.235c-3.3 3.008-8.675 2.486-12.005-1.167l-21.292-23.355c-3.33-3.653-3.354-9.054-.054-12.063l21.1-19.234c3.3-3.008 8.675-2.486 12.005 1.167l21.291 23.355c3.33 3.653 3.355 9.054.055 12.062Z"
         fill="#008837"
         fill-rule="evenodd"
         data-name="Path 2254"
         id="path202"
         style="fill:#008837;fill-opacity:0.20391758" />
      <path
         d="m308.29 3622.024-18.588 18.702c-2.908 2.925-2.613 7.932.658 11.184l20.91 20.782c3.271 3.25 8.28 3.513 11.188.588l18.587-18.702c2.908-2.926 2.613-7.933-.658-11.184l-20.91-20.781c-3.27-3.25-8.28-3.515-11.187-.59Zm31.44 30.712-16.24 18.036c-2.54 2.821-7.184 2.78-10.373-.09l-20.382-18.353c-3.188-2.87-3.714-7.484-1.174-10.306l16.242-18.036c2.539-2.822 7.184-2.781 10.372.089l20.383 18.353c3.188 2.87 3.713 7.485 1.172 10.307Z"
         fill="#008837"
         fill-rule="evenodd"
         data-name="Path 2255"
         id="path204"
         style="fill:#008837;fill-opacity:0.20391758" />
      <path
         d="m307.502 3625.89-14.06 17.257c-2.201 2.698-1.483 6.925 1.602 9.44l19.722 16.071c3.086 2.513 7.37 2.363 9.57-.335l14.061-17.256c2.2-2.7 1.482-6.925-1.603-9.44l-19.723-16.071c-3.085-2.513-7.369-2.363-9.57.335Zm29.555 23.677-12.053 16.376c-1.885 2.561-5.816 2.87-8.78.689l-18.944-13.944c-2.964-2.181-3.839-6.026-1.953-8.587l12.052-16.376c1.886-2.561 5.816-2.87 8.78-.689l18.945 13.944c2.964 2.181 3.838 6.026 1.953 8.587Z"
         fill="#008837"
         fill-rule="evenodd"
         data-name="Path 2256"
         id="path206"
         style="fill:#008837;fill-opacity:0.20391758" />
      <path
         d="m307.421 3629.478-10.214 15.415c-1.599 2.411-.602 5.883 2.224 7.757l18.066 11.97c2.826 1.873 6.413 1.436 8.01-.974l10.214-15.415c1.599-2.412.602-5.884-2.224-7.757l-18.066-11.971c-2.826-1.873-6.413-1.437-8.01.975Zm26.983 17.571-8.546 14.39c-1.337 2.251-4.59 2.788-7.264 1.2l-17.102-10.157c-2.675-1.59-3.76-4.702-2.424-6.953l8.547-14.39c1.337-2.25 4.589-2.787 7.265-1.199l17.1 10.157c2.676 1.588 3.76 4.7 2.424 6.952Z"
         fill="#008837"
         fill-rule="evenodd"
         data-name="Path 2257"
         id="path208"
         style="fill:#008837;fill-opacity:0.20391758" />
      <path
         d="m307.949 3632.7-7.046 13.318c-1.102 2.084.042 4.85 2.555 6.18l16.065 8.5c2.513 1.328 5.445.717 6.546-1.364l7.047-13.32c1.102-2.083-.042-4.849-2.555-6.179l-16.066-8.5c-2.513-1.329-5.443-.717-6.546 1.366Zm23.915 12.42-5.71 12.214c-.894 1.91-3.517 2.571-5.858 1.476l-14.973-7c-2.342-1.096-3.517-3.532-2.624-5.442l5.71-12.213c.895-1.912 3.517-2.572 5.858-1.478l14.974 7.002c2.341 1.094 3.516 3.53 2.623 5.442Z"
         fill="#008837"
         fill-rule="evenodd"
         data-name="Path 2258"
         id="path210"
         style="fill:#008837;fill-opacity:0.20391758" />
      <path
         d="m308.984 3635.495-4.535 11.093c-.709 1.734.47 3.859 2.635 4.743l13.837 5.657c2.164.885 4.495.196 5.204-1.54l4.534-11.092c.71-1.735-.47-3.859-2.635-4.744l-13.836-5.657c-2.165-.884-4.495-.195-5.204 1.54Zm17.931 4.128c1.982.7 3.144 2.53 2.594 4.09l-3.513 9.969c-.55 1.558-2.602 2.256-4.584 1.558l-12.674-4.466c-1.981-.699-3.144-2.529-2.594-4.089l3.514-9.969c.548-1.56 2.602-2.256 4.583-1.558l12.674 4.465Z"
         fill="#008837"
         fill-rule="evenodd"
         data-name="Path 2259"
         id="path212"
         style="fill:#008837;fill-opacity:0.20391758" />
      <path
         d="m310.416 3637.816-2.638 8.858c-.413 1.385.71 2.943 2.508 3.478l11.494 3.424c1.798.536 3.589-.154 4.002-1.54l2.64-8.856c.411-1.387-.712-2.944-2.51-3.48l-11.493-3.423c-1.797-.535-3.59.154-4.003 1.539Zm4.29-.511 10.313 2.526c1.612.395 2.678 1.7 2.381 2.916l-1.903 7.77c-.299 1.216-1.848 1.881-3.46 1.485l-10.311-2.526c-1.613-.395-2.68-1.7-2.382-2.916l1.903-7.77c.299-1.215 1.847-1.88 3.46-1.485Z"
         fill="#008837"
         fill-rule="evenodd"
         data-name="Path 2260"
         id="path214"
         style="fill:#008837;fill-opacity:0.20391758" />
      <path
         d="m313.058 3648.76 9.139 1.768c1.429.276 2.752-.352 2.956-1.404l1.299-6.718c.203-1.052-.791-2.128-2.22-2.404l-9.14-1.767c-1.43-.276-2.753.352-2.956 1.403l-1.299 6.72c-.203 1.05.79 2.127 2.221 2.403Zm.012-8.401c.128-.893 1.243-1.474 2.492-1.295l7.987 1.139c1.25.178 2.157 1.047 2.03 1.94l-.815 5.715c-.127.894-1.244 1.474-2.492 1.296l-7.986-1.14c-1.25-.177-2.16-1.046-2.031-1.94l.815-5.715Z"
         fill="#008837"
         fill-rule="evenodd"
         data-name="Path 2261"
         id="path216"
         style="fill:#008837;fill-opacity:0.20391758" />
      <path
         d="m315.411 3647.25 6.865.637c1.074.099 2-.424 2.069-1.17l.442-4.765c.069-.746-.746-1.43-1.82-1.53l-6.864-.636c-1.073-.1-2 .424-2.069 1.17l-.441 4.765c-.07.746.745 1.43 1.818 1.53Zm-.394-5.823c.026-.607.78-1.068 1.685-1.029l5.782.25c.905.04 1.617.563 1.591 1.17l-.168 3.883c-.026.607-.78 1.067-1.684 1.027l-5.784-.248c-.904-.04-1.615-.563-1.59-1.17l.168-3.883Z"
         fill="#008837"
         fill-rule="evenodd"
         data-name="Path 2262"
         id="path218"
         style="fill:#008837;fill-opacity:0.20391758" />
      <path
         d="m317.375 3645.711 4.75-.03c.743-.004 1.342-.397 1.34-.878l-.019-3.07c-.004-.48-.608-.866-1.351-.86l-4.75.028c-.743.004-1.343.397-1.34.878l.019 3.07c.002.48.607.866 1.35.862Zm.643-4.418 3.775-.21c.59-.032 1.085.237 1.106.603l.129 2.336c.02.367-.442.69-1.032.722l-3.774.21c-.59.033-1.086-.237-1.107-.602l-.129-2.339c-.02-.364.442-.687 1.032-.72Z"
         fill="#008837"
         fill-rule="evenodd"
         data-name="Path 2263"
         id="path220"
         style="fill:#008837;fill-opacity:0.20391758" />
      <path
         d="m318.988 3644.218 2.862-.3c.447-.048.788-.3.76-.564l-.178-1.687c-.027-.265-.413-.44-.86-.394l-2.862.301c-.448.047-.788.3-.76.563l.176 1.689c.03.264.413.44.862.392Z"
         fill="#008837"
         fill-rule="evenodd"
         data-name="Path 2264"
         id="path222"
         style="fill:#008837;fill-opacity:0.20391758" />
    </g>
    <g
       data-name="Group 1141"
       id="g248">
      <path
         d="M323.454 3655.48c0-6.456 5.23-11.688 11.685-11.688 6.456 0 11.688 5.232 11.688 11.688 0 6.454-5.232 11.685-11.688 11.685-6.454 0-11.685-5.231-11.685-11.685Zm0 0"
         fill="#008837"
         fill-rule="evenodd"
         data-name="Path 2265"
         id="path226" />
      <g
         data-name="Group 1140"
         id="g232">
        <path
           d="M331.54 3652.193v3.152h-1.02v-7.305h2.275c.693 0 1.229.179 1.607.537.377.357.568.872.568 1.54 0 .382-.089.714-.265 1a1.784 1.784 0 0 1-.76.667c.365.123.629.334.79.63.163.296.244.662.244 1.098v.637c0 .225.023.433.068.626a.928.928 0 0 0 .234.455v.115h-1.05c-.113-.11-.186-.277-.219-.5a5.085 5.085 0 0 1-.047-.706v-.619c0-.409-.092-.733-.279-.97-.186-.239-.441-.357-.766-.357h-1.38Zm0-.774h1.204c.412 0 .717-.111.912-.335.196-.223.294-.538.294-.947 0-.42-.096-.746-.286-.976-.191-.232-.48-.348-.869-.348h-1.256v2.606Z"
           fill="#008837"
           fill-rule="evenodd"
           data-name="Path 2266"
           id="path228" />
        <path
           d="M338.76 3653.984a.745.745 0 0 0-.209-.534c-.138-.146-.4-.305-.785-.48-.56-.217-.974-.45-1.243-.695-.269-.247-.404-.564-.404-.957 0-.418.165-.773.495-1.067.33-.293.762-.439 1.297-.439.56 0 1.005.158 1.336.475.332.316.491.71.477 1.183l-.01.03h-.98c0-.258-.072-.48-.218-.666a.725.725 0 0 0-.605-.28c-.254 0-.452.074-.595.217a.699.699 0 0 0-.212.507c0 .208.06.371.182.492.123.12.386.278.79.472.57.205.992.437 1.269.696.276.26.414.591.414.997 0 .448-.17.812-.512 1.094-.341.281-.79.422-1.346.422-.6 0-1.07-.17-1.415-.51-.345-.34-.51-.737-.492-1.193l.01-.03h.949c.013.352.11.606.29.761a.993.993 0 0 0 .674.233c.264 0 .471-.067.62-.203a.678.678 0 0 0 .223-.525Z"
           fill="#008837"
           fill-rule="evenodd"
           data-name="Path 2267"
           id="path230" />
      </g>
      <path
         d="m336.693 3632.144-23.334-3.4c-3.048-.443-6.15.43-8.507 2.423l-11.491 9.693h-7.765c-.56 0-1.03.456-1.03 1.03v27.594c0 .573.47 1.03 1.03 1.03h8.09l14.54 1.745c1.277.143 2.554.221 3.817.221 3.284 0 6.515-.508 9.68-1.51l1.916-.613 2.462-.782a15.473 15.473 0 0 1-2.02-1.524l-2.253.716-.73.235a29.404 29.404 0 0 1-12.624 1.199l-14.605-1.733c-.04-.013-.091-.013-.13-.013h-7.101v-25.536h7.1c.248 0 .483-.078.665-.235l11.778-9.94a8.775 8.775 0 0 1 6.879-1.968l23.347 3.414c1.433.195 2.527 1.42 2.592 2.853a.635.635 0 0 1 .013.156v1.98c.704.157 1.394.379 2.059.626v-2.606c0-2.514-1.876-4.69-4.378-5.055Z"
         fill="#008837"
         fill-rule="evenodd"
         data-name="Path 2268"
         id="path234" />
      <path
         d="M281.47 3674.364a3.069 3.069 0 0 0 3.07-3.07v-31.167a3.069 3.069 0 0 0-3.07-3.07h-11.541a.828.828 0 0 0-.827.828v35.652c0 .457.371.827.827.827h11.54Zm0 0"
         fill="#008837"
         fill-rule="evenodd"
         data-name="Path 2269"
         id="path236" />
      <path
         d="M284.54 3670.679h2.826c.902 0 1.634-.731 1.634-1.634v-27.297c0-.903-.732-1.634-1.634-1.634h-2.827v30.565Zm0-30.552"
         fill="#e0ebfc"
         fill-rule="evenodd"
         data-name="Path 2270"
         id="path238" />
      <path
         d="M269.929 3675.395a1.86 1.86 0 0 1-1.86-1.858v-35.65a1.86 1.86 0 0 1 1.86-1.859h11.54a4.103 4.103 0 0 1 4.102 4.099v31.168c0 2.262-1.84 4.1-4.101 4.1h-11.541Zm.205-37.306v35.242h11.336a2.04 2.04 0 0 0 2.037-2.036v-31.17a2.04 2.04 0 0 0-2.037-2.036h-11.336Zm11.336 0"
         fill="#008837"
         fill-rule="evenodd"
         data-name="Path 2271"
         id="path240" />
      <path
         d="M284.54 3671.71c-.57 0-1.033-.462-1.033-1.031V3640.114c0-.57.463-1.032 1.032-1.032h2.827a2.668 2.668 0 0 1 2.666 2.666v27.297a2.669 2.669 0 0 1-2.666 2.666h-2.827Zm1.031-30.564v28.5h1.795c.331 0 .602-.269.602-.601v-27.297a.603.603 0 0 0-.602-.602h-1.795Zm1.795 0"
         fill="#008837"
         fill-rule="evenodd"
         data-name="Path 2272"
         id="path242" />
      <path
         d="M341.07 3637.616a18.73 18.73 0 0 0-2.07-.573 18.89 18.89 0 0 0-3.857-.39c-10.384 0-18.826 8.442-18.826 18.825a18.75 18.75 0 0 0 5.51 13.29c.561.573 1.173 1.107 1.812 1.589a18.675 18.675 0 0 0 11.504 3.947c10.37 0 18.813-8.442 18.813-18.826 0-8.312-5.407-15.373-12.885-17.862Zm-5.927 34.617c-3.322 0-6.423-.977-9.042-2.658a15.474 15.474 0 0 1-2.02-1.524c-3.504-3.075-5.706-7.57-5.706-12.573 0-9.237 7.53-16.754 16.768-16.754 1.329 0 2.619.156 3.87.456.703.156 1.393.378 2.058.625 6.319 2.41 10.827 8.52 10.827 15.673 0 9.238-7.518 16.755-16.755 16.755Z"
         fill="#008837"
         fill-rule="evenodd"
         data-name="Path 2273"
         id="path244" />
      <path
         d="M311.767 3672.475a35.09 35.09 0 0 1-1.523-.034c-1.38-.109-3.396-.351-3.48-.363l-4.511-.537a1.033 1.033 0 0 1-.903-1.148 1.039 1.039 0 0 1 1.146-.903l4.513.54c.022.002 2.061.249 3.362.353 1.838.078 3.683 0 5.482-.23l20.012-2.557a4.248 4.248 0 0 0 2.872-1.56 4.253 4.253 0 0 0 .928-3.134 4.255 4.255 0 0 0-3.394-3.74l-.028-.006a4.325 4.325 0 0 0-1.251-.056c-.051.006-.1.006-.151.004l-22.764-1.047a1.033 1.033 0 0 1-.983-1.078 1.03 1.03 0 0 1 1.078-.983l22.692 1.043a6.315 6.315 0 0 1 1.778.094 6.305 6.305 0 0 1 5.075 5.554 6.288 6.288 0 0 1-1.377 4.649 6.272 6.272 0 0 1-4.238 2.31l-19.987 2.556a34.245 34.245 0 0 1-4.348.273Zm0 0"
         fill="#008837"
         fill-rule="evenodd"
         data-name="Path 2275"
         id="path246" />
    </g>
  </g>
</svg>
