<?xml version="1.0" encoding="UTF-8" standalone="no"?>
<svg
   width="115.367"
   height="115.367"
   viewBox="1064.983 3593.983 115.367 115.367"
   version="1.1"
   id="svg1300"
   sodipodi:docname="reporting.svg"
   inkscape:version="1.2.2 (b0a8486541, 2022-12-01)"
   xmlns:inkscape="http://www.inkscape.org/namespaces/inkscape"
   xmlns:sodipodi="http://sodipodi.sourceforge.net/DTD/sodipodi-0.dtd"
   xmlns="http://www.w3.org/2000/svg"
   xmlns:svg="http://www.w3.org/2000/svg">
  <defs
     id="defs1304" />
  <sodipodi:namedview
     id="namedview1302"
     pagecolor="#ffffff"
     bordercolor="#000000"
     borderopacity="0.25"
     inkscape:showpageshadow="2"
     inkscape:pageopacity="0.0"
     inkscape:pagecheckerboard="0"
     inkscape:deskcolor="#d1d1d1"
     showgrid="false"
     inkscape:zoom="6.7783684"
     inkscape:cx="57.757262"
     inkscape:cy="57.683498"
     inkscape:window-width="1920"
     inkscape:window-height="1011"
     inkscape:window-x="0"
     inkscape:window-y="0"
     inkscape:window-maximized="1"
     inkscape:current-layer="svg1300" />
  <g
     data-name="Group 1145"
     id="g1298">
    <g
       data-name="Group 1143"
       id="g1288">
      <path
         d="M1159.479 3594h-73.626c-11.518 0-20.853 9.335-20.853 20.853v73.626c0 11.516 9.335 20.852 20.853 20.852h73.626c11.517 0 20.852-9.336 20.852-20.852v-73.626c0-11.518-9.335-20.853-20.852-20.853Zm1.171 110.73-69.975 3.451c-10.947.54-20.26-7.938-20.802-18.937l-3.468-70.312c-.542-10.999 7.891-20.352 18.838-20.893l69.975-3.45c10.945-.54 20.259 7.938 20.802 18.936l3.467 70.314c.543 10.999-7.891 20.352-18.837 20.891Z"
         fill="#008837"
         fill-rule="evenodd"
         data-name="Path 2276"
         id="path1252"
         style="fill:#008837;fill-opacity:0.20057745" />
      <path
         d="m1151.175 3595.421-66.26 6.552c-10.366 1.024-17.928 10.34-16.893 20.807l6.616 66.912c1.035 10.467 10.276 18.122 20.64 17.096l66.261-6.55c10.365-1.026 17.928-10.342 16.893-20.809l-6.617-66.912c-1.035-10.468-10.276-18.122-20.64-17.096Zm10.985 100.446-62.504 9.308c-9.777 1.456-18.9-5.41-20.38-15.334l-9.448-63.45c-1.48-9.927 5.248-19.153 15.026-20.61l62.504-9.308c9.777-1.456 18.902 5.41 20.38 15.335l9.448 63.45c1.479 9.925-5.249 19.153-15.026 20.61Z"
         fill="#008837"
         fill-rule="evenodd"
         data-name="Path 2277"
         id="path1254"
         style="fill:#008837;fill-opacity:0.20057745" />
      <path
         d="m1143.777 3597.727-58.733 11.73c-9.186 1.833-15.116 10.923-13.243 20.3l11.972 59.947c1.873 9.378 10.838 15.493 20.026 13.657l58.731-11.729c9.188-1.835 15.117-10.924 13.244-20.302l-11.972-59.947c-1.873-9.378-10.839-15.491-20.025-13.656Zm18.89 89.817-54.967 13.825c-8.598 2.163-17.368-3.239-19.587-12.066l-14.192-56.424c-2.22-8.827 2.95-17.734 11.55-19.897l54.965-13.825c8.598-2.162 17.367 3.24 19.587 12.066l14.192 56.425c2.22 8.827-2.95 17.734-11.548 19.896Z"
         fill="#008837"
         fill-rule="evenodd"
         data-name="Path 2278"
         id="path1256"
         style="fill:#008837;fill-opacity:0.20057745" />
      <path
         d="m1137.342 3600.746-51.23 15.604c-8.012 2.441-12.465 11.129-9.944 19.403l16.114 52.903c2.52 8.276 11.06 13.004 19.074 10.564l51.228-15.605c8.013-2.44 12.465-11.128 9.945-19.403l-16.115-52.903c-2.52-8.274-11.06-13.004-19.072-10.563Zm24.959 79.107-47.539 17.081c-7.436 2.672-15.715-1.426-18.491-9.152l-17.75-49.4c-2.778-7.727 1-16.159 8.436-18.83l47.539-17.082c7.435-2.672 15.715 1.427 18.491 9.153l17.75 49.4c2.777 7.728-1 16.158-8.436 18.83Z"
         fill="#008837"
         fill-rule="evenodd"
         data-name="Path 2279"
         id="path1258"
         style="fill:#008837;fill-opacity:0.20057745" />
      <path
         d="m1131.9 3604.31-43.916 18.269c-6.87 2.858-10.015 11-7.026 18.184l19.11 45.935c2.99 7.186 10.98 10.695 17.85 7.837l43.918-18.27c6.868-2.858 10.014-11 7.025-18.186l-19.11-45.935c-2.99-7.184-10.981-10.693-17.85-7.834Zm29.303 68.547-40.378 19.183c-6.316 3.001-13.998.041-17.16-6.611l-20.202-42.526c-3.16-6.652-.601-14.476 5.714-17.478l40.378-19.182c6.316-3 13.998-.04 17.158 6.61l20.204 42.526c3.16 6.653.602 14.478-5.714 17.478Z"
         fill="#008837"
         fill-rule="evenodd"
         data-name="Path 2280"
         id="path1260"
         style="fill:#008837;fill-opacity:0.20057745" />
      <path
         d="m1127.458 3608.25-36.939 19.836c-5.78 3.104-7.794 10.587-4.503 16.718l21.043 39.188c3.293 6.13 10.645 8.582 16.423 5.48l36.94-19.836c5.779-3.104 7.794-10.589 4.503-16.718l-21.043-39.188c-3.293-6.13-10.645-8.582-16.424-5.48Zm32.052 58.352-33.617 20.247c-5.258 3.166-12.266 1.178-15.651-4.443l-21.642-35.935c-3.386-5.622-1.867-12.746 3.391-15.913l33.617-20.246c5.258-3.167 12.266-1.177 15.651 4.444l21.642 35.935c3.386 5.62 1.868 12.744-3.391 15.91Z"
         fill="#008837"
         fill-rule="evenodd"
         data-name="Path 2281"
         id="path1262"
         style="fill:#008837;fill-opacity:0.20057745" />
      <path
         d="m1124 3612.41-30.421 20.43c-4.76 3.195-5.825 9.942-2.383 15.07l22.014 32.78c3.444 5.129 10.092 6.696 14.852 3.5l30.422-20.429c4.76-3.196 5.825-9.944 2.381-15.072l-22.012-32.78c-3.444-5.128-10.093-6.694-14.852-3.5Zm33.36 48.7-27.366 20.404c-4.281 3.19-10.562 2.007-14.03-2.645l-22.172-29.739c-3.468-4.652-2.81-11.01 1.47-14.201l27.367-20.404c4.281-3.192 10.563-2.008 14.032 2.644l22.17 29.74c3.47 4.652 2.81 11.01-1.47 14.202Z"
         fill="#008837"
         fill-rule="evenodd"
         data-name="Path 2282"
         id="path1264"
         style="fill:#008837;fill-opacity:0.20057745" />
      <path
         d="m1121.489 3616.641-24.46 20.184c-3.827 3.158-4.123 9.117-.66 13.314l22.131 26.82c3.462 4.194 9.37 5.036 13.196 1.88l24.46-20.186c3.827-3.157 4.122-9.118.66-13.313l-22.131-26.82c-3.463-4.196-9.37-5.036-13.196-1.879Zm33.4 39.744-21.713 19.793c-3.395 3.096-8.927 2.558-12.354-1.201l-21.909-24.033c-3.427-3.759-3.452-9.316-.056-12.413l21.712-19.792c3.396-3.095 8.927-2.558 12.354 1.201l21.909 24.033c3.427 3.76 3.452 9.316.056 12.412Z"
         fill="#008837"
         fill-rule="evenodd"
         data-name="Path 2283"
         id="path1266"
         style="fill:#008837;fill-opacity:0.20057745" />
      <path
         d="m1119.864 3620.806-19.127 19.246c-2.993 3.01-2.69 8.161.677 11.508l21.517 21.385c3.365 3.345 8.52 3.615 11.512.606l19.126-19.246c2.992-3.01 2.69-8.163-.677-11.508l-21.517-21.385c-3.365-3.345-8.519-3.617-11.511-.606Zm32.352 31.604-16.71 18.56c-2.615 2.902-7.393 2.86-10.675-.093l-20.973-18.886c-3.281-2.953-3.823-7.702-1.208-10.606l16.712-18.558c2.613-2.904 7.393-2.863 10.673.09l20.975 18.887c3.28 2.953 3.82 7.702 1.206 10.606Z"
         fill="#008837"
         fill-rule="evenodd"
         data-name="Path 2284"
         id="path1268"
         style="fill:#008837;fill-opacity:0.20057745" />
      <path
         d="m1119.053 3624.785-14.469 17.757c-2.264 2.777-1.525 7.126 1.65 9.714l20.294 16.538c3.175 2.586 7.584 2.432 9.847-.345l14.47-17.757c2.263-2.778 1.524-7.125-1.65-9.713l-20.295-16.538c-3.175-2.586-7.583-2.432-9.847.344Zm30.412 24.364L1137.063 3666c-1.94 2.636-5.985 2.953-9.035.71l-19.494-14.35c-3.05-2.244-3.95-6.2-2.01-8.836l12.403-16.85c1.94-2.637 5.984-2.954 9.034-.71l19.495 14.349c3.05 2.244 3.95 6.2 2.01 8.836Z"
         fill="#008837"
         fill-rule="evenodd"
         data-name="Path 2285"
         id="path1270"
         style="fill:#008837;fill-opacity:0.20057745" />
      <path
         d="m1118.97 3628.476-10.511 15.863c-1.645 2.482-.62 6.054 2.288 7.982l18.591 12.318c2.908 1.927 6.599 1.478 8.242-1.003l10.511-15.862c1.645-2.482.62-6.055-2.288-7.983l-18.591-12.318c-2.908-1.927-6.599-1.478-8.243 1.003Zm27.766 18.082-8.795 14.807c-1.375 2.317-4.722 2.87-7.474 1.235l-17.599-10.452c-2.752-1.635-3.869-4.838-2.493-7.155l8.794-14.807c1.376-2.316 4.722-2.868 7.476-1.234l17.597 10.452c2.753 1.634 3.87 4.837 2.494 7.154Z"
         fill="#008837"
         fill-rule="evenodd"
         data-name="Path 2286"
         id="path1272"
         style="fill:#008837;fill-opacity:0.20057745" />
      <path
         d="m1119.512 3631.793-7.25 13.704c-1.134 2.144.043 4.99 2.63 6.359l16.53 8.746c2.587 1.368 5.603.74 6.736-1.403l7.252-13.706c1.134-2.143-.043-4.99-2.63-6.358l-16.53-8.747c-2.587-1.367-5.602-.739-6.738 1.405Zm24.61 12.78-5.877 12.568c-.92 1.967-3.618 2.646-6.027 1.519l-15.407-7.203c-2.41-1.128-3.62-3.635-2.7-5.6l5.876-12.568c.92-1.966 3.618-2.646 6.028-1.52l15.408 7.205c2.409 1.126 3.618 3.633 2.699 5.6Z"
         fill="#008837"
         fill-rule="evenodd"
         data-name="Path 2287"
         id="path1274"
         style="fill:#008837;fill-opacity:0.20057745" />
      <path
         d="m1120.578 3634.669-4.667 11.414c-.729 1.785.484 3.971 2.711 4.881l14.24 5.822c2.226.91 4.625.2 5.354-1.585l4.665-11.414c.731-1.786-.484-3.971-2.71-4.882l-14.238-5.82c-2.228-.911-4.625-.202-5.355 1.584Zm18.452 4.247c2.039.72 3.235 2.604 2.669 4.208l-3.616 10.259c-.566 1.603-2.677 2.322-4.716 1.603l-13.042-4.595c-2.04-.719-3.235-2.603-2.67-4.207l3.616-10.259c.565-1.605 2.678-2.322 4.717-1.603l13.042 4.594Z"
         fill="#008837"
         fill-rule="evenodd"
         data-name="Path 2288"
         id="path1276"
         style="fill:#008837;fill-opacity:0.20057745" />
      <path
         d="m1122.052 3637.057-2.715 9.115c-.425 1.425.73 3.028 2.58 3.58l11.828 3.522c1.85.551 3.693-.158 4.118-1.584l2.717-9.114c.423-1.426-.732-3.029-2.583-3.58l-11.827-3.523c-1.849-.55-3.693.158-4.118 1.584Zm4.414-.526 10.612 2.6c1.66.406 2.756 1.75 2.45 3l-1.958 7.996c-.307 1.25-1.901 1.935-3.561 1.528l-10.61-2.6c-1.66-.406-2.758-1.75-2.45-3l1.958-7.996c.307-1.25 1.9-1.934 3.56-1.528Z"
         fill="#008837"
         fill-rule="evenodd"
         data-name="Path 2289"
         id="path1278"
         style="fill:#008837;fill-opacity:0.20057745" />
      <path
         d="m1124.77 3648.32 9.404 1.817c1.47.285 2.833-.362 3.042-1.444l1.336-6.913c.21-1.082-.813-2.19-2.284-2.474l-9.405-1.818c-1.47-.284-2.833.362-3.042 1.444l-1.336 6.914c-.21 1.082.813 2.19 2.285 2.473Zm.013-8.647c.13-.918 1.279-1.516 2.564-1.332l8.218 1.172c1.286.183 2.22 1.077 2.09 1.997l-.839 5.88c-.131.92-1.28 1.517-2.564 1.334l-8.219-1.173c-1.285-.182-2.221-1.076-2.09-1.997l.84-5.88Z"
         fill="#008837"
         fill-rule="evenodd"
         data-name="Path 2290"
         id="path1280"
         style="fill:#008837;fill-opacity:0.20057745" />
      <path
         d="m1127.192 3646.766 7.064.654c1.104.102 2.058-.436 2.129-1.204l.454-4.903c.071-.768-.767-1.472-1.871-1.575l-7.064-.654c-1.105-.102-2.058.437-2.13 1.203l-.454 4.905c-.07.766.767 1.47 1.872 1.574Zm-.407-5.993c.027-.625.804-1.1 1.735-1.06l5.95.258c.93.04 1.664.58 1.637 1.204l-.173 3.995c-.027.625-.803 1.098-1.733 1.058l-5.952-.256c-.93-.04-1.662-.58-1.635-1.204l.171-3.995Z"
         fill="#008837"
         fill-rule="evenodd"
         data-name="Path 2291"
         id="path1282"
         style="fill:#008837;fill-opacity:0.20057745" />
      <path
         d="m1129.212 3645.18 4.888-.03c.764-.004 1.381-.409 1.378-.904l-.018-3.158c-.004-.495-.627-.892-1.39-.886l-4.889.03c-.764.003-1.382.408-1.38.903l.02 3.158c.003.495.626.892 1.391.888Zm.662-4.545 3.884-.216c.608-.034 1.117.244 1.138.62l.133 2.404c.022.377-.454.71-1.062.743l-3.883.216c-.608.033-1.117-.244-1.139-.62l-.132-2.406c-.022-.375.454-.708 1.061-.741Z"
         fill="#008837"
         fill-rule="evenodd"
         data-name="Path 2292"
         id="path1284"
         style="fill:#008837;fill-opacity:0.20057745" />
      <path
         d="m1130.872 3643.644 2.945-.308c.46-.05.811-.308.782-.58l-.182-1.737c-.029-.272-.425-.453-.885-.404l-2.946.31c-.46.048-.81.308-.783.578l.183 1.738c.03.272.425.453.886.403Z"
         fill="#008837"
         fill-rule="evenodd"
         data-name="Path 2293"
         id="path1286"
         style="fill:#008837;fill-opacity:0.20057745" />
    </g>
    <g
       data-name="Group 1144"
       id="g1296">
      <path
         d="M1092.801 3682.656h44.997c.595 0 1.016-.55 1.016-1.146v-23.259l14.407-14.408c.423-.417.43-1.098.013-1.523l-5.733-5.74a1.11 1.11 0 0 0-1.55-.002l-7.137 7.095v-10.945a1.059 1.059 0 0 0-.286-.763l-10.891-10.94a1.074 1.074 0 0 0-.748-.35H1092.8c-.594 0-1.012.55-1.012 1.145v59.691c0 .596.418 1.145 1.012 1.145Zm34.413-23.362 3.321 3.32-4.988 1.669 1.667-4.989Zm5.315 2.266-4.26-4.26 13.68-13.647 4.228 4.228-13.648 13.679Zm14.218-22.695 4.217 4.218-3.266 3.272-4.224-4.225 3.273-3.265Zm-18.713-14.443 7.161 7.167h-7.161v-7.167Zm-34.09-1.591h31.934v9.897a.974.974 0 0 0 1.01 1.017h9.77v12.08l-10.706 10.711a.97.97 0 0 0-.246.397l-1.52 4.57h-23.275a1.078 1.078 0 0 0 0 2.155h22.555l-.649 1.967c-.13.383-.028.808.26 1.09.075.077.161.176.252.176h-22.418a1.078 1.078 0 0 0 0 2.156h28.7a1.078 1.078 0 0 0 0-2.156h-5.213l8.473-2.808a.952.952 0 0 0 .391-.25l3.396-3.422v20.09h-42.713v-57.67Zm0 0"
         fill="#008837"
         fill-rule="evenodd"
         data-name="Path 2294"
         id="path1290" />
      <path
         d="M1129.612 3672.28h-28.701a1.078 1.078 0 0 0 0 2.157h28.7a1.078 1.078 0 0 0 0-2.156Zm0 0"
         fill="#008837"
         fill-rule="evenodd"
         data-name="Path 2295"
         id="path1292" />
      <path
         d="M1100.91 3658.268h15.227a1.077 1.077 0 1 0 0-2.155h-15.226a1.078 1.078 0 0 0 0 2.155Zm0 0"
         fill="#008837"
         fill-rule="evenodd"
         data-name="Path 2296"
         id="path1294" />
    </g>
  </g>
</svg>
