<?xml version="1.0" encoding="UTF-8" standalone="no"?>
<svg
   width="114.667"
   height="114.667"
   viewBox="1065.683 3826.683 114.667 114.667"
   version="1.1"
   id="svg4868"
   sodipodi:docname="social.svg"
   inkscape:version="1.2.2 (b0a8486541, 2022-12-01)"
   xmlns:inkscape="http://www.inkscape.org/namespaces/inkscape"
   xmlns:sodipodi="http://sodipodi.sourceforge.net/DTD/sodipodi-0.dtd"
   xmlns="http://www.w3.org/2000/svg"
   xmlns:svg="http://www.w3.org/2000/svg">
  <defs
     id="defs4872" />
  <sodipodi:namedview
     id="namedview4870"
     pagecolor="#ffffff"
     bordercolor="#000000"
     borderopacity="0.25"
     inkscape:showpageshadow="2"
     inkscape:pageopacity="0.0"
     inkscape:pagecheckerboard="0"
     inkscape:deskcolor="#d1d1d1"
     showgrid="false"
     inkscape:zoom="6.8197476"
     inkscape:cx="57.406816"
     inkscape:cy="57.3335"
     inkscape:window-width="1920"
     inkscape:window-height="1011"
     inkscape:window-x="0"
     inkscape:window-y="0"
     inkscape:window-maximized="1"
     inkscape:current-layer="svg4868" />
  <g
     data-name="Group 1151"
     id="g4866">
    <g
       data-name="Group 1149"
       id="g4856">
      <path
         d="M1159.604 3826.695h-73.182c-11.449 0-20.727 9.278-20.727 20.727v73.182c0 11.447 9.278 20.727 20.727 20.727h73.182c11.449 0 20.727-9.28 20.727-20.727v-73.182c0-11.449-9.278-20.727-20.727-20.727Zm1.165 110.063-69.554 3.43c-10.88.537-20.138-7.89-20.676-18.823l-3.448-69.888c-.538-10.933 7.844-20.23 18.724-20.767l69.554-3.43c10.88-.536 20.137 7.89 20.677 18.822l3.446 69.89c.54 10.933-7.844 20.23-18.723 20.766Z"
         fill="#008837"
         fill-rule="evenodd"
         data-name="Path 2322"
         id="path4820"
         style="fill:#008837;fill-opacity:0.20041893" />
      <path
         d="m1151.35 3828.107-65.861 6.512c-10.302 1.018-17.82 10.279-16.79 20.682l6.576 66.51c1.028 10.403 10.214 18.012 20.516 16.992l65.861-6.51c10.303-1.02 17.82-10.28 16.791-20.684l-6.576-66.509c-1.029-10.405-10.215-18.012-20.517-16.993Zm10.92 99.841-62.128 9.252c-9.719 1.447-18.787-5.377-20.257-15.242l-9.392-63.068c-1.47-9.867 5.217-19.038 14.936-20.485l62.127-9.252c9.719-1.447 18.789 5.377 20.257 15.242l9.392 63.069c1.47 9.865-5.217 19.037-14.936 20.484Z"
         fill="#008837"
         fill-rule="evenodd"
         data-name="Path 2323"
         id="path4822"
         style="fill:#008837;fill-opacity:0.20041893" />
      <path
         d="m1143.997 3830.4-58.379 11.658c-9.13 1.823-15.025 10.858-13.163 20.178l11.9 59.586c1.861 9.322 10.772 15.4 19.904 13.575l58.378-11.659c9.132-1.824 15.026-10.857 13.165-20.179l-11.9-59.586c-1.862-9.322-10.774-15.398-19.905-13.574Zm18.776 89.275-54.636 13.742c-8.546 2.15-17.263-3.22-19.469-11.993l-14.106-56.085c-2.206-8.773 2.933-17.627 11.48-19.776l54.634-13.742c8.546-2.15 17.263 3.22 19.47 11.993l14.106 56.085c2.207 8.773-2.933 17.627-11.479 19.776Z"
         fill="#008837"
         fill-rule="evenodd"
         data-name="Path 2324"
         id="path4824"
         style="fill:#008837;fill-opacity:0.20041893" />
      <path
         d="m1137.6 3833.4-50.92 15.51c-7.965 2.427-12.39 11.062-9.885 19.286l16.018 52.584c2.505 8.226 10.993 12.926 18.958 10.5l50.92-15.51c7.964-2.426 12.39-11.06 9.885-19.287l-16.018-52.584c-2.505-8.224-10.992-12.926-18.957-10.499Zm24.81 78.63-47.253 16.979c-7.391 2.656-15.62-1.418-18.38-9.098l-17.643-49.103c-2.761-7.68.994-16.06 8.386-18.716l47.252-16.978c7.39-2.656 15.62 1.418 18.38 9.097l17.643 49.103c2.76 7.681-.994 16.06-8.386 18.716Z"
         fill="#008837"
         fill-rule="evenodd"
         data-name="Path 2325"
         id="path4826"
         style="fill:#008837;fill-opacity:0.20041893" />
      <path
         d="m1132.192 3836.942-43.652 18.16c-6.828 2.84-9.954 10.933-6.984 18.074l18.995 45.659c2.972 7.142 10.915 10.63 17.743 7.789l43.653-18.16c6.827-2.84 9.954-10.933 6.983-18.076l-18.995-45.658c-2.972-7.142-10.915-10.629-17.743-7.788Zm29.126 68.135-40.135 19.067c-6.278 2.983-13.913.04-17.055-6.571l-20.081-42.27c-3.142-6.612-.598-14.39 5.68-17.373l40.134-19.066c6.278-2.983 13.914-.04 17.054 6.57l20.082 42.27c3.141 6.612.599 14.39-5.679 17.373Z"
         fill="#008837"
         fill-rule="evenodd"
         data-name="Path 2326"
         id="path4828"
         style="fill:#008837;fill-opacity:0.20041893" />
      <path
         d="m1127.777 3840.859-36.717 19.716c-5.744 3.085-7.747 10.524-4.476 16.618l20.916 38.951c3.273 6.093 10.581 8.531 16.324 5.448l36.718-19.717c5.744-3.085 7.747-10.525 4.475-16.617l-20.916-38.952c-3.273-6.092-10.58-8.531-16.324-5.447Zm31.858 58-33.415 20.125c-5.226 3.147-12.191 1.171-15.556-4.416l-21.512-35.719c-3.365-5.587-1.855-12.669 3.371-15.816l33.415-20.125c5.226-3.148 12.192-1.17 15.557 4.418l21.511 35.718c3.365 5.586 1.857 12.668-3.371 15.815Z"
         fill="#008837"
         fill-rule="evenodd"
         data-name="Path 2327"
         id="path4830"
         style="fill:#008837;fill-opacity:0.20041893" />
      <path
         d="m1124.34 3844.994-30.239 20.307c-4.73 3.175-5.79 9.882-2.368 14.98l21.881 32.582c3.424 5.097 10.032 6.655 14.763 3.478l30.239-20.306c4.73-3.176 5.79-9.883 2.366-14.98l-21.88-32.583c-3.423-5.098-10.031-6.654-14.762-3.478Zm33.159 48.407-27.202 20.28c-4.255 3.172-10.498 1.995-13.946-2.629l-22.038-29.559c-3.447-4.624-2.793-10.945 1.462-14.116l27.202-20.28c4.255-3.174 10.5-1.997 13.947 2.627l22.037 29.56c3.448 4.625 2.793 10.945-1.462 14.117Z"
         fill="#008837"
         fill-rule="evenodd"
         data-name="Path 2328"
         id="path4832"
         style="fill:#008837;fill-opacity:0.20041893" />
      <path
         d="m1121.843 3849.2-24.313 20.061c-3.803 3.14-4.098 9.063-.656 13.234l21.999 26.658c3.44 4.17 9.313 5.007 13.116 1.869l24.313-20.064c3.803-3.138 4.097-9.063.656-13.232l-21.998-26.66c-3.443-4.17-9.314-5.005-13.117-1.867Zm33.199 39.504-21.582 19.674c-3.375 3.077-8.873 2.542-12.28-1.194l-21.776-23.888c-3.406-3.737-3.432-9.26-.056-12.338l21.58-19.673c3.376-3.077 8.874-2.543 12.28 1.194l21.778 23.888c3.406 3.736 3.431 9.26.056 12.337Z"
         fill="#008837"
         fill-rule="evenodd"
         data-name="Path 2329"
         id="path4834"
         style="fill:#008837;fill-opacity:0.20041893" />
      <path
         d="m1120.228 3853.34-19.012 19.129c-2.974 2.991-2.673 8.112.673 11.439l21.388 21.256c3.345 3.324 8.468 3.594 11.443.602l19.01-19.13c2.975-2.992 2.673-8.113-.673-11.438l-21.388-21.256c-3.344-3.325-8.467-3.595-11.441-.602Zm32.158 31.412-16.61 18.449c-2.6 2.885-7.349 2.843-10.61-.092l-20.848-18.772c-3.26-2.936-3.799-7.656-1.2-10.542l16.611-18.447c2.598-2.887 7.348-2.845 10.61.09l20.847 18.772c3.261 2.936 3.798 7.656 1.2 10.542Z"
         fill="#008837"
         fill-rule="evenodd"
         data-name="Path 2330"
         id="path4836"
         style="fill:#008837;fill-opacity:0.20041893" />
      <path
         d="m1119.422 3857.295-14.382 17.65c-2.25 2.76-1.516 7.082 1.64 9.654l20.172 16.439c3.156 2.57 7.539 2.417 9.788-.343l14.382-17.65c2.25-2.76 1.516-7.082-1.64-9.654l-20.173-16.439c-3.155-2.57-7.537-2.417-9.787.343Zm30.23 24.217-12.328 16.749c-1.929 2.62-5.95 2.936-8.98.705l-19.378-14.263c-3.031-2.23-3.926-6.163-1.997-8.783l12.327-16.75c1.929-2.619 5.949-2.935 8.98-.704l19.378 14.263c3.031 2.23 3.925 6.163 1.997 8.783Z"
         fill="#008837"
         fill-rule="evenodd"
         data-name="Path 2331"
         id="path4838"
         style="fill:#008837;fill-opacity:0.20041893" />
      <path
         d="m1119.339 3860.963-10.447 15.767c-1.636 2.467-.616 6.018 2.274 7.935l18.48 12.243c2.89 1.915 6.558 1.469 8.192-.996l10.447-15.768c1.635-2.466.616-6.018-2.274-7.934l-18.48-12.244c-2.89-1.916-6.558-1.47-8.192.997Zm27.6 17.973-8.743 14.718c-1.367 2.303-4.693 2.852-7.429 1.227l-17.493-10.388c-2.735-1.626-3.845-4.81-2.478-7.112l8.742-14.719c1.367-2.301 4.693-2.85 7.43-1.226l17.492 10.39c2.735 1.624 3.845 4.807 2.478 7.11Z"
         fill="#008837"
         fill-rule="evenodd"
         data-name="Path 2332"
         id="path4840"
         style="fill:#008837;fill-opacity:0.20041893" />
      <path
         d="m1119.879 3864.26-7.207 13.622c-1.127 2.13.043 4.96 2.613 6.32l16.432 8.694c2.57 1.36 5.57.734 6.695-1.395l7.208-13.623c1.128-2.131-.042-4.96-2.613-6.32l-16.432-8.695c-2.57-1.359-5.568-.734-6.696 1.397Zm24.46 12.704-5.84 12.491c-.914 1.955-3.597 2.63-5.991 1.51l-15.314-7.16c-2.396-1.12-3.598-3.613-2.684-5.566l5.84-12.492c.915-1.955 3.597-2.63 5.992-1.511l15.315 7.161c2.395 1.12 3.597 3.612 2.683 5.567Z"
         fill="#008837"
         fill-rule="evenodd"
         data-name="Path 2333"
         id="path4842"
         style="fill:#008837;fill-opacity:0.20041893" />
      <path
         d="m1120.938 3867.118-4.639 11.346c-.725 1.774.481 3.947 2.695 4.852l14.153 5.786c2.214.905 4.598.2 5.323-1.575l4.637-11.346c.726-1.775-.481-3.947-2.695-4.852l-14.152-5.786c-2.214-.905-4.597-.2-5.322 1.575Zm18.34 4.222c2.027.716 3.216 2.588 2.654 4.183l-3.594 10.197c-.563 1.594-2.662 2.308-4.688 1.594l-12.964-4.568c-2.027-.715-3.215-2.587-2.653-4.182l3.594-10.197c.561-1.595 2.661-2.308 4.688-1.594l12.963 4.567Z"
         fill="#008837"
         fill-rule="evenodd"
         data-name="Path 2334"
         id="path4844"
         style="fill:#008837;fill-opacity:0.20041893" />
      <path
         d="m1122.403 3869.492-2.699 9.06c-.422 1.416.726 3.01 2.565 3.558l11.756 3.502c1.84.548 3.672-.157 4.094-1.575l2.7-9.059c.421-1.418-.728-3.01-2.567-3.558l-11.756-3.502c-1.837-.548-3.671.157-4.093 1.574Zm4.388-.523 10.547 2.584c1.65.404 2.74 1.74 2.436 2.983l-1.947 7.947c-.305 1.243-1.89 1.924-3.54 1.52l-10.545-2.585c-1.65-.403-2.741-1.739-2.436-2.982l1.947-7.947c.305-1.244 1.888-1.923 3.538-1.52Z"
         fill="#008837"
         fill-rule="evenodd"
         data-name="Path 2335"
         id="path4846"
         style="fill:#008837;fill-opacity:0.20041893" />
      <path
         d="m1125.105 3880.687 9.347 1.807c1.462.282 2.816-.36 3.023-1.435l1.329-6.873c.208-1.075-.809-2.176-2.27-2.458l-9.349-1.807c-1.462-.283-2.816.36-3.023 1.435l-1.329 6.872c-.208 1.076.809 2.176 2.272 2.459Zm.012-8.594c.13-.913 1.271-1.507 2.55-1.325l8.168 1.165c1.278.183 2.207 1.071 2.076 1.986l-.833 5.844c-.13.914-1.272 1.507-2.549 1.326l-8.169-1.166c-1.278-.181-2.208-1.07-2.077-1.985l.834-5.845Z"
         fill="#008837"
         fill-rule="evenodd"
         data-name="Path 2336"
         id="path4848"
         style="fill:#008837;fill-opacity:0.20041893" />
      <path
         d="m1127.512 3879.142 7.021.65c1.098.102 2.046-.432 2.116-1.196l.452-4.873c.07-.764-.762-1.463-1.86-1.566l-7.022-.65c-1.098-.102-2.045.434-2.116 1.196l-.452 4.875c-.07.762.763 1.462 1.86 1.564Zm-.404-5.956c.027-.621.798-1.093 1.724-1.053l5.914.256c.925.04 1.654.575 1.627 1.196l-.172 3.972c-.026.62-.798 1.09-1.723 1.05l-5.915-.254c-.925-.04-1.652-.575-1.626-1.196l.17-3.971Z"
         fill="#008837"
         fill-rule="evenodd"
         data-name="Path 2337"
         id="path4850"
         style="fill:#008837;fill-opacity:0.20041893" />
      <path
         d="m1129.52 3877.567 4.859-.03c.76-.004 1.372-.407 1.37-.899l-.02-3.14c-.003-.49-.622-.885-1.381-.88l-4.859.03c-.76.003-1.374.406-1.37.897l.02 3.14c.002.492.62.886 1.381.882Zm.658-4.519 3.86-.214c.604-.033 1.11.242 1.132.617l.132 2.39c.021.374-.452.704-1.055.737l-3.86.215c-.605.033-1.11-.243-1.132-.616l-.132-2.392c-.021-.373.452-.703 1.055-.737Z"
         fill="#008837"
         fill-rule="evenodd"
         data-name="Path 2338"
         id="path4852"
         style="fill:#008837;fill-opacity:0.20041893" />
      <path
         d="m1131.17 3876.04 2.927-.306c.457-.05.807-.307.777-.577l-.181-1.726c-.028-.27-.422-.45-.88-.403l-2.927.308c-.459.048-.806.307-.778.576l.18 1.727c.03.27.423.45.882.401Z"
         fill="#008837"
         fill-rule="evenodd"
         data-name="Path 2339"
         id="path4854"
         style="fill:#008837;fill-opacity:0.20041893" />
    </g>
    <g
       data-name="Group 1150"
       id="g4864">
      <path
         d="M1123.013 3861.748c-12.276 0-22.265 9.988-22.265 22.265 0 12.276 9.99 22.265 22.265 22.265 12.277 0 22.265-9.99 22.265-22.265 0-12.277-9.988-22.265-22.265-22.265Zm-11.206 38.557v-7.804a4.766 4.766 0 0 1 4.182-4.717 9.251 9.251 0 0 0 12.494 1.433 9.301 9.301 0 0 0 1.551-1.433 4.766 4.766 0 0 1 4.185 4.717v7.804c-3.27 2.195-7.055 3.482-11.206 3.482s-7.937-1.287-11.206-3.482Zm24.902-2.03v-5.774a7.263 7.263 0 0 0-7.253-7.243c-.396 0-.769.189-1.003.509a6.75 6.75 0 0 1-10.881 0 1.241 1.241 0 0 0-1.002-.51 7.263 7.263 0 0 0-7.253 7.244v5.774a19.79 19.79 0 0 1-6.086-14.262c0-10.905 8.875-19.774 19.778-19.774 10.903 0 19.783 8.87 19.783 19.774a19.788 19.788 0 0 1-6.083 14.262Zm0 0"
         fill="#008837"
         fill-rule="evenodd"
         data-name="Path 2340"
         id="path4858" />
      <path
         d="M1153.233 3887.506a31.25 31.25 0 0 0-.216-8.337l3.446-3.305c.378-.361.488-.92.279-1.398l-3.923-8.968a1.242 1.242 0 0 0-1.232-.742l-4.77.35a28.093 28.093 0 0 0-6.045-5.757l.14-4.765a1.245 1.245 0 0 0-.795-1.198l-9.129-3.523a1.246 1.246 0 0 0-1.39.349l-3.091 3.58c-2.777-.3-5.58-.227-8.338.218l-3.305-3.448a1.247 1.247 0 0 0-1.398-.278l-8.967 3.924a1.246 1.246 0 0 0-.743 1.233l.35 4.77a28.093 28.093 0 0 0-5.756 6.044l-4.766-.14a1.237 1.237 0 0 0-1.198.796l-3.523 9.128c-.19.49-.05 1.046.348 1.39l3.583 3.091a31.25 31.25 0 0 0 .216 8.337l-3.446 3.305c-.377.36-.49.92-.279 1.397l3.923 8.967c.212.484.705.783 1.233.744l4.77-.352a28.1 28.1 0 0 0 6.044 5.758l-.14 4.766a1.245 1.245 0 0 0 .796 1.198l9.128 3.523c.49.19 1.047.05 1.391-.35l3.09-3.581a31.25 31.25 0 0 0 8.337-.216l3.305 3.446c.36.377.92.49 1.398.279l8.968-3.924c.482-.211.78-.705.742-1.23l-.35-4.772a28.126 28.126 0 0 0 5.756-6.044l4.766.14a1.247 1.247 0 0 0 1.198-.797l3.523-9.128c.19-.49.05-1.046-.348-1.39l-3.582-3.09Zm-1.6 11.89-4.563-.134a1.24 1.24 0 0 0-1.073.554 25.68 25.68 0 0 1-6.11 6.415 1.246 1.246 0 0 0-.5 1.093l.335 4.565-7.364 3.221-3.162-3.295a1.243 1.243 0 0 0-1.122-.363c-2.938.537-5.94.616-8.903.23a1.25 1.25 0 0 0-1.105.422l-2.949 3.42-7.487-2.89.134-4.564a1.25 1.25 0 0 0-.553-1.073 25.657 25.657 0 0 1-6.416-6.108 1.247 1.247 0 0 0-1.093-.503l-4.565.336-3.223-7.364 3.297-3.16c.301-.29.437-.712.363-1.124a28.795 28.795 0 0 1-.23-8.903 1.242 1.242 0 0 0-.422-1.103l-3.42-2.95 2.89-7.49 4.564.135a1.24 1.24 0 0 0 1.071-.555 25.702 25.702 0 0 1 6.11-6.415c.344-.253.533-.666.502-1.091l-.335-4.567 7.364-3.22 3.16 3.295c.29.302.712.438 1.124.364a28.768 28.768 0 0 1 8.905-.23 1.25 1.25 0 0 0 1.104-.422l2.95-3.42 7.487 2.89-.135 4.562c-.013.43.197.836.554 1.073a25.68 25.68 0 0 1 6.415 6.11c.255.344.667.533 1.093.502l4.566-.335 3.222 7.363-3.297 3.161c-.301.29-.438.712-.363 1.122.539 2.939.616 5.942.231 8.905-.055.414.104.829.421 1.102l3.42 2.951-2.892 7.488Zm0 0"
         fill="#008837"
         fill-rule="evenodd"
         data-name="Path 2341"
         id="path4860" />
      <path
         d="M1123.013 3869.243a7.907 7.907 0 0 0-7.908 7.907 7.907 7.907 0 1 0 7.908-7.907Zm0 13.325a5.418 5.418 0 1 1 5.418-5.418 5.424 5.424 0 0 1-5.418 5.418Zm0 0"
         fill="#008837"
         fill-rule="evenodd"
         data-name="Path 2342"
         id="path4862" />
    </g>
  </g>
</svg>
