<?xml version="1.0" encoding="UTF-8" standalone="no"?>
<svg
   width="112.1"
   height="112.1"
   viewBox="254.983 4059.983 112.1 112.1"
   version="1.1"
   id="svg6225"
   sodipodi:docname="women.svg"
   inkscape:version="1.2.2 (b0a8486541, 2022-12-01)"
   xmlns:inkscape="http://www.inkscape.org/namespaces/inkscape"
   xmlns:sodipodi="http://sodipodi.sourceforge.net/DTD/sodipodi-0.dtd"
   xmlns="http://www.w3.org/2000/svg"
   xmlns:svg="http://www.w3.org/2000/svg">
  <defs
     id="defs6229" />
  <sodipodi:namedview
     id="namedview6227"
     pagecolor="#ffffff"
     bordercolor="#000000"
     borderopacity="0.25"
     inkscape:showpageshadow="2"
     inkscape:pageopacity="0.0"
     inkscape:pagecheckerboard="0"
     inkscape:deskcolor="#d1d1d1"
     showgrid="false"
     inkscape:zoom="6.9759145"
     inkscape:cx="56.265025"
     inkscape:cy="56.049999"
     inkscape:window-width="1920"
     inkscape:window-height="1011"
     inkscape:window-x="0"
     inkscape:window-y="0"
     inkscape:window-maximized="1"
     inkscape:current-layer="svg6225" />
  <g
     data-name="Group 1154"
     id="g6223">
    <g
       data-name="Group 1152"
       id="g6213">
      <path
         d="M346.814 4060h-71.55c-11.192 0-20.264 9.072-20.264 20.264v71.55c0 11.191 9.072 20.264 20.264 20.264h71.55c11.192 0 20.264-9.073 20.264-20.264v-71.55c0-11.192-9.072-20.264-20.264-20.264Zm1.138 107.607-68.001 3.353c-10.638.525-19.689-7.714-20.215-18.402l-3.37-68.33c-.527-10.688 7.668-19.778 18.306-20.303l68.001-3.353c10.637-.524 19.688 7.714 20.215 18.403l3.37 68.33c.527 10.688-7.67 19.778-18.306 20.302Z"
         fill="#008837"
         fill-rule="evenodd"
         data-name="Path 2343"
         id="path6177"
         style="fill:#008837;fill-opacity:0.19710144" />
      <path
         d="m338.744 4061.38-64.392 6.368c-10.072.995-17.421 10.049-16.415 20.22l6.43 65.025c1.005 10.171 9.985 17.61 20.058 16.614l64.391-6.366c10.072-.997 17.422-10.05 16.416-20.221l-6.43-65.025c-1.005-10.173-9.986-17.61-20.058-16.614Zm10.675 97.614-60.74 9.045c-9.502 1.415-18.368-5.257-19.805-14.902l-9.182-61.66c-1.438-9.647 5.1-18.613 14.602-20.028l60.74-9.045c9.502-1.415 18.37 5.257 19.805 14.902l9.183 61.66c1.437 9.645-5.1 18.613-14.603 20.028Z"
         fill="#008837"
         fill-rule="evenodd"
         data-name="Path 2344"
         id="path6179"
         style="fill:#008837;fill-opacity:0.19710144" />
      <path
         d="m331.555 4063.622-57.076 11.398c-8.927 1.783-14.69 10.616-12.87 19.728l11.635 58.256c1.82 9.114 10.532 15.056 19.46 13.273l57.075-11.399c8.928-1.784 14.69-10.616 12.87-19.729l-11.634-58.256c-1.82-9.114-10.533-15.055-19.46-13.271Zm18.357 87.284-53.417 13.434c-8.355 2.102-16.878-3.147-19.034-11.725l-13.792-54.833c-2.156-8.578 2.868-17.234 11.224-19.335l53.415-13.435c8.355-2.102 16.877 3.148 19.035 11.726l13.792 54.832c2.157 8.578-2.868 17.234-11.223 19.336Z"
         fill="#008837"
         fill-rule="evenodd"
         data-name="Path 2345"
         id="path6181"
         style="fill:#008837;fill-opacity:0.19710144" />
      <path
         d="m325.301 4066.556-49.784 15.164c-7.787 2.372-12.114 10.814-9.664 18.856l15.66 51.41c2.45 8.042 10.748 12.637 18.535 10.266l49.783-15.165c7.787-2.371 12.114-10.814 9.665-18.856l-15.66-51.41c-2.45-8.041-10.748-12.638-18.535-10.265Zm24.255 76.875-46.197 16.6c-7.227 2.596-15.272-1.387-17.97-8.895l-17.25-48.007c-2.7-7.508.972-15.702 8.199-18.298l46.197-16.6c7.226-2.596 15.272 1.387 17.97 8.895l17.25 48.007c2.698 7.51-.972 15.702-8.199 18.298Z"
         fill="#008837"
         fill-rule="evenodd"
         data-name="Path 2346"
         id="path6183"
         style="fill:#008837;fill-opacity:0.19710144" />
      <path
         d="m320.013 4070.019-42.677 17.754c-6.676 2.777-9.732 10.69-6.828 17.671l18.57 44.64c2.906 6.983 10.672 10.392 17.348 7.615l42.678-17.754c6.675-2.778 9.732-10.69 6.827-17.673l-18.57-44.64c-2.906-6.981-10.672-10.39-17.348-7.613Zm28.476 66.614-39.239 18.641c-6.137 2.917-13.603.04-16.675-6.424l-19.632-41.326c-3.072-6.465-.585-14.068 5.552-16.985l39.24-18.642c6.137-2.915 13.602-.039 16.673 6.425l19.634 41.326c3.07 6.465.585 14.07-5.553 16.985Z"
         fill="#008837"
         fill-rule="evenodd"
         data-name="Path 2347"
         id="path6185"
         style="fill:#008837;fill-opacity:0.19710144" />
      <path
         d="m315.697 4073.848-35.897 19.277c-5.617 3.016-7.575 10.288-4.377 16.246l20.45 38.082c3.2 5.957 10.344 8.34 15.96 5.326l35.898-19.277c5.615-3.016 7.573-10.29 4.375-16.246l-20.45-38.082c-3.2-5.957-10.344-8.34-15.96-5.326Zm31.147 56.706-32.669 19.675c-5.11 3.078-11.92 1.146-15.21-4.317l-21.031-34.922c-3.29-5.462-1.814-12.386 3.296-15.463l32.669-19.675c5.11-3.078 11.92-1.144 15.21 4.319l21.03 34.92c3.29 5.462 1.816 12.386-3.295 15.463Z"
         fill="#008837"
         fill-rule="evenodd"
         data-name="Path 2348"
         id="path6187"
         style="fill:#008837;fill-opacity:0.19710144" />
      <path
         d="m312.337 4077.89-29.564 19.855c-4.625 3.104-5.661 9.661-2.316 14.645l21.393 31.855c3.347 4.984 9.808 6.507 14.433 3.4l29.564-19.852c4.625-3.106 5.66-9.663 2.314-14.646l-21.391-31.856c-3.347-4.983-9.808-6.505-14.433-3.4Zm32.418 47.328-26.595 19.827c-4.16 3.101-10.263 1.95-13.634-2.57l-21.546-28.9c-3.37-4.52-2.731-10.7 1.429-13.8l26.595-19.829c4.16-3.102 10.265-1.951 13.635 2.57l21.545 28.9c3.372 4.521 2.731 10.7-1.429 13.802Z"
         fill="#008837"
         fill-rule="evenodd"
         data-name="Path 2349"
         id="path6189"
         style="fill:#008837;fill-opacity:0.19710144" />
      <path
         d="m309.895 4082.002-23.77 19.615c-3.718 3.069-4.006 8.86-.641 12.938l21.507 26.063c3.364 4.077 9.106 4.895 12.824 1.827l23.77-19.616c3.719-3.068 4.005-8.86.641-12.937l-21.507-26.064c-3.365-4.077-9.106-4.894-12.824-1.826Zm32.458 38.623-21.1 19.235c-3.3 3.008-8.675 2.486-12.005-1.167l-21.291-23.355c-3.33-3.653-3.355-9.053-.055-12.063l21.1-19.234c3.3-3.008 8.675-2.486 12.005 1.168l21.291 23.354c3.33 3.653 3.355 9.054.055 12.062Z"
         fill="#008837"
         fill-rule="evenodd"
         data-name="Path 2350"
         id="path6191"
         style="fill:#008837;fill-opacity:0.19710144" />
      <path
         d="m308.316 4086.05-18.587 18.703c-2.908 2.924-2.614 7.931.657 11.183l20.911 20.782c3.27 3.25 8.28 3.513 11.188.589l18.586-18.703c2.908-2.926 2.613-7.933-.658-11.183l-20.91-20.782c-3.27-3.25-8.279-3.515-11.187-.589Zm31.44 30.712-16.24 18.037c-2.54 2.82-7.183 2.78-10.373-.09l-20.381-18.353c-3.189-2.87-3.715-7.485-1.174-10.307l16.24-18.035c2.54-2.822 7.185-2.782 10.373.088l20.383 18.353c3.188 2.87 3.713 7.485 1.172 10.307Z"
         fill="#008837"
         fill-rule="evenodd"
         data-name="Path 2351"
         id="path6193"
         style="fill:#008837;fill-opacity:0.19710144" />
      <path
         d="m307.528 4089.917-14.06 17.256c-2.2 2.698-1.483 6.925 1.602 9.44l19.723 16.071c3.085 2.513 7.37 2.363 9.569-.335l14.061-17.256c2.2-2.7 1.482-6.924-1.603-9.439l-19.723-16.072c-3.085-2.513-7.369-2.363-9.57.335Zm29.555 23.677-12.053 16.375c-1.885 2.561-5.816 2.87-8.78.69l-18.944-13.945c-2.964-2.181-3.838-6.026-1.953-8.587l12.052-16.376c1.886-2.56 5.816-2.87 8.78-.689l18.945 13.945c2.964 2.18 3.838 6.025 1.953 8.587Z"
         fill="#008837"
         fill-rule="evenodd"
         data-name="Path 2352"
         id="path6195"
         style="fill:#008837;fill-opacity:0.19710144" />
      <path
         d="m307.447 4093.504-10.214 15.415c-1.599 2.412-.602 5.884 2.224 7.757l18.066 11.97c2.826 1.873 6.413 1.436 8.01-.974l10.214-15.415c1.599-2.412.602-5.884-2.224-7.757l-18.066-11.97c-2.826-1.874-6.413-1.438-8.01.974Zm26.983 17.571-8.546 14.39c-1.337 2.251-4.589 2.788-7.264 1.2l-17.102-10.157c-2.675-1.59-3.76-4.702-2.423-6.953l8.546-14.39c1.337-2.25 4.589-2.787 7.265-1.199l17.101 10.157c2.675 1.588 3.76 4.7 2.423 6.952Z"
         fill="#008837"
         fill-rule="evenodd"
         data-name="Path 2353"
         id="path6197"
         style="fill:#008837;fill-opacity:0.19710144" />
      <path
         d="m307.975 4096.727-7.046 13.318c-1.102 2.083.042 4.849 2.555 6.179l16.065 8.5c2.513 1.329 5.445.718 6.546-1.364l7.047-13.32c1.102-2.083-.042-4.848-2.555-6.179l-16.065-8.5c-2.514-1.328-5.444-.717-6.547 1.366Zm23.915 12.42-5.71 12.213c-.894 1.911-3.517 2.572-5.858 1.476l-14.972-7c-2.343-1.096-3.518-3.532-2.624-5.442l5.71-12.213c.894-1.911 3.516-2.572 5.858-1.477l14.973 7.001c2.341 1.094 3.516 3.53 2.623 5.442Z"
         fill="#008837"
         fill-rule="evenodd"
         data-name="Path 2354"
         id="path6199"
         style="fill:#008837;fill-opacity:0.19710144" />
      <path
         d="m309.01 4099.522-4.535 11.092c-.708 1.734.47 3.859 2.635 4.744l13.837 5.657c2.164.884 4.495.195 5.204-1.54l4.534-11.093c.71-1.735-.47-3.859-2.635-4.743l-13.836-5.657c-2.165-.885-4.495-.196-5.203 1.54Zm17.932 4.127c1.981.7 3.143 2.53 2.593 4.09l-3.513 9.969c-.55 1.558-2.602 2.256-4.584 1.558l-12.674-4.466c-1.981-.698-3.143-2.529-2.594-4.088l3.514-9.97c.549-1.56 2.602-2.256 4.584-1.558l12.674 4.465Z"
         fill="#008837"
         fill-rule="evenodd"
         data-name="Path 2355"
         id="path6201"
         style="fill:#008837;fill-opacity:0.19710144" />
      <path
         d="m310.442 4101.842-2.638 8.858c-.413 1.385.71 2.943 2.508 3.479l11.494 3.423c1.798.536 3.59-.153 4.002-1.54l2.64-8.856c.411-1.386-.712-2.943-2.51-3.479l-11.493-3.424c-1.797-.535-3.59.154-4.003 1.539Zm4.29-.51 10.313 2.525c1.613.395 2.678 1.7 2.381 2.916l-1.903 7.77c-.299 1.216-1.848 1.882-3.46 1.486l-10.311-2.527c-1.613-.394-2.68-1.7-2.382-2.915l1.904-7.77c.298-1.216 1.846-1.88 3.459-1.486Z"
         fill="#008837"
         fill-rule="evenodd"
         data-name="Path 2356"
         id="path6203"
         style="fill:#008837;fill-opacity:0.19710144" />
      <path
         d="m313.085 4112.787 9.138 1.767c1.429.276 2.753-.352 2.956-1.403l1.299-6.72c.203-1.05-.791-2.127-2.22-2.403l-9.14-1.767c-1.429-.276-2.753.352-2.956 1.404l-1.299 6.718c-.203 1.052.791 2.128 2.222 2.404Zm.011-8.402c.128-.892 1.243-1.473 2.493-1.295l7.986 1.139c1.25.178 2.157 1.047 2.03 1.941l-.814 5.714c-.128.894-1.245 1.474-2.493 1.297l-7.986-1.14c-1.25-.178-2.159-1.047-2.031-1.942l.815-5.714Z"
         fill="#008837"
         fill-rule="evenodd"
         data-name="Path 2357"
         id="path6205"
         style="fill:#008837;fill-opacity:0.19710144" />
      <path
         d="m315.437 4111.277 6.865.636c1.074.099 2-.424 2.069-1.17l.442-4.765c.069-.746-.746-1.43-1.82-1.53l-6.864-.636c-1.073-.1-2 .425-2.069 1.17l-.441 4.766c-.07.745.745 1.429 1.818 1.53Zm-.394-5.824c.026-.607.78-1.068 1.686-1.029l5.782.25c.904.04 1.616.563 1.59 1.17l-.168 3.883c-.026.607-.78 1.067-1.684 1.028l-5.784-.25c-.904-.038-1.615-.562-1.59-1.17l.168-3.882Z"
         fill="#008837"
         fill-rule="evenodd"
         data-name="Path 2358"
         id="path6207"
         style="fill:#008837;fill-opacity:0.19710144" />
      <path
         d="m317.4 4109.737 4.751-.03c.743-.004 1.342-.397 1.34-.878l-.019-3.07c-.004-.48-.608-.866-1.351-.86l-4.75.028c-.743.004-1.343.397-1.34.878l.019 3.07c.002.48.607.866 1.35.862Zm.644-4.418 3.775-.21c.59-.032 1.085.238 1.106.604l.129 2.336c.02.366-.442.689-1.032.721l-3.774.21c-.59.033-1.086-.237-1.106-.602l-.13-2.338c-.02-.365.442-.688 1.032-.72Z"
         fill="#008837"
         fill-rule="evenodd"
         data-name="Path 2359"
         id="path6209"
         style="fill:#008837;fill-opacity:0.19710144" />
      <path
         d="m319.014 4108.244 2.862-.3c.447-.048.788-.3.76-.564l-.178-1.687c-.027-.264-.413-.44-.86-.393l-2.862.3c-.448.048-.788.3-.76.563l.177 1.689c.028.264.413.44.86.392Z"
         fill="#008837"
         fill-rule="evenodd"
         data-name="Path 2360"
         id="path6211"
         style="fill:#008837;fill-opacity:0.19710144" />
    </g>
    <path
       d="M331.091 4129.874c-.844-4.233-4.815-4.954-4.828-4.959-.043-.013.365.089-9.684-2.4v-.342h7.397a2.768 2.768 0 0 0 2.765-2.766V4105.3a3.441 3.441 0 0 0 0-1.596v-5.149a.94.94 0 0 0-1.879 0v2.696a4.886 4.886 0 0 0-1.671-.614 2.453 2.453 0 0 0-2.065-1.888c-1.075-.14-1.89-.767-2.421-1.861a1.6 1.6 0 0 0-1.303-.9 1.595 1.595 0 0 0-1.44.648c-1.616 2.198-6.105 7.127-13.854 7.125-.59 0-.99-.027-1.13-.034a2.484 2.484 0 0 0-2.627 2.48v2.157c0 3.45 1.43 6.795 3.925 9.175a12.58 12.58 0 0 0 2.714 1.974v.78h-7.364a.888.888 0 0 1-.887-.886v-21.105c0-6.842 5.579-12.48 12.318-12.48h.066c2.414.014 5.2.7 7.1 1.748 1.204.664 1.948.136 3.137.136 2.902 0 5.227 2.984 5.506 5.668.001.039.005.197.007.798 0 .907 1.024.978.939.94a.94.94 0 0 0 .94-.94c-.002-.168 0-.822-.015-.973-.378-3.736-3.565-7.371-7.377-7.371-1.489 0-1.72.376-2.229.096-2.153-1.188-5.293-1.965-8-1.98-7.795-.05-14.27 6.446-14.27 14.358v21.105a2.768 2.768 0 0 0 2.765 2.765h7.364v.341l-9.646 2.39-.038.011-.705.207c-.02.007-.042.013-.062.021-1.258.47-3.458 1.708-4.061 4.73-2.859 14.36-2.739 13.747-2.745 13.797-.346 2.436.874 4.384 3.806 4.384h10.157a.94.94 0 0 0 0-1.879h-3.534v-8.86a.939.939 0 0 0-1.879 0v8.86h-4.744c-1.246 0-1.972-.401-1.984-1.712-.005-.64-.03-.017 2.765-14.222.42-2.106 1.95-2.986 2.845-3.327l.652-.192 5.54-1.373c6.162 7.26 5.797 6.875 6.153 7.223 2.057 2.005 4.99 1.864 6.923-.404l5.8-6.814 5.518 1.368c.16.073 2.906.557 3.498 3.52 2.771 14.082 2.77 13.579 2.764 14.22-.01 1.283-.704 1.713-1.984 1.713h-4.71v-8.86a.939.939 0 0 0-1.878 0v8.86h-17.362a.94.94 0 0 0 0 1.879h23.95c2.32 0 3.841-1.277 3.863-3.577.008-1.074-.056-.561-2.8-14.603Zm-7.115-9.58h-7.397v-.726a12.433 12.433 0 0 0 6.673-11.039v-.173a4.87 4.87 0 0 0 1.61-.602v11.654a.887.887 0 0 1-.886.886Zm.886-16.33v1.076c-.221.639-.826 1.156-1.61 1.39v-3.853c.784.233 1.389.749 1.61 1.387Zm-24.633 4.401c.056-2.044-.135-2.291.19-2.599a.596.596 0 0 1 .447-.163c6.735.405 12.527-2.555 16.351-7.512 1.03 1.811 2.543 2.375 3.665 2.522.28.037.491.277.491.557v7.36c0 9.345-11.187 13.962-17.8 7.651a10.849 10.849 0 0 1-3.344-7.816Zm8.327 22.577-1.96-2.314h8.382l-1.976 2.322c-1.309 1.537-3.14 1.533-4.446-.008Zm8.021-4.191h-11.571l-1.615-1.906 2.764-.685a.948.948 0 0 0 .714-.92v-2.907c2.583.863 5.313.852 7.831.028.018 3.001-.04 2.932.053 3.198a.934.934 0 0 0 .661.6l2.782.691-1.619 1.9Z"
       fill="#008837"
       fill-rule="evenodd"
       data-name="Path 2361"
       id="path6215" />
    <g
       data-name="Group 1153"
       id="g6221">
      <path
         d="M330.352 4149.353c-9.658-1.052-11.24-11.889-11.457-16.836a2.189 2.189 0 0 1 2.05-2.287c3.138-.198 6.868-2.004 8.639-2.955a2.176 2.176 0 0 1 2.062 0c1.77.95 5.5 2.757 8.64 2.955a2.19 2.19 0 0 1 2.05 2.286c-.215 4.947-1.793 15.785-11.459 16.837a2.525 2.525 0 0 1-.525 0Z"
         fill="#008837"
         fill-rule="evenodd"
         data-name="Path 2362"
         id="path6217" />
      <path
         d="m335.346 4140.598-.002-.002c.538-.413.983-.99 1.257-1.705.771-2.013-.081-4.336-1.904-5.188-1.3-.609-2.743-.301-3.744.657-.2.191-.528.2-.732.013-.983-.9-2.37-1.193-3.636-.628-1.835.818-2.72 3.116-1.976 5.134a3.87 3.87 0 0 0 1.233 1.719h-.004l4.005 3.297c.388.32.964.323 1.358.01l4.145-3.307Zm0 0"
         fill="#fff"
         fill-rule="evenodd"
         data-name="Path 2363"
         id="path6219" />
    </g>
  </g>
</svg>
